ArcticonsSans (Autosaved).glyphspackage
{
glyphname = exclam;
layers = (
{
layerId = m002;
shapes = (
{
attr = {
fill = 1;
};
closed = 1;
nodes = (
(210,116,o),
(176,150,o),
(135,150,c),
(93,150,o),
(60,116,o),
(60,75,c),
(60,34,o),
(93,0,o),
(135,0,c),
(176,0,o),
(210,34,o),
(210,75,c)
);
},
{
attr = {
lineCapEnd = 1;
lineCapStart = 1;
strokeHeight = 100;
strokeWidth = 100;
};
closed = 0;
nodes = (
(135,849,l),
(135,265,l)
);
}
);
width = 270;
}
);
unicode = 33;
}
{
glyphname = ampersand;
layers = (
{
layerId = m002;
shapes = (
{
attr = {
lineCapEnd = 1;
lineCapStart = 1;
strokeHeight = 100;
strokeWidth = 100;
};
closed = 0;
nodes = (
(785,50,l),
(718,50,l),
(673,50,o),
(631,71,o),
(605,108,c),
(327,489,l),
(292,536,o),
(229,598,o),
(229,689,c),
(229,775,o),
(299,850,o),
(396,850,c),
(491,850,o),
(558,775,o),
(558,689,c),
(558,598,o),
(484,519,o),
(348,494,c),
(195,465,o),
(100,381,o),
(100,243,c),
(100,132,o),
(170,50,o),
(311,50,c),
(495,50,o),
(604,225,o),
(764,440,c)
);
}
);
width = 885;
}
);
unicode = 38;
}
{
glyphname = quotesingle;
kernLeft = quote;
kernRight = quote;
lastChange = "2025-05-23 06:36:04 +0000";
layers = (
{
layerId = m002;
shapes = (
{
attr = {
lineCapEnd = "1";
lineCapStart = "1";
strokeHeight = 100;
strokeWidth = 100;
};
closed = 0;
nodes = (
(80,630,l),
(80,850,l)
);
}
);
width = 160;
}
);
unicode = 39;
}
{
glyphname = three;
layers = (
{
layerId = m002;
shapes = (
{
attr = {
lineCapEnd = 1;
lineCapStart = 1;
strokeHeight = 100;
strokeWidth = 100;
};
closed = 0;
nodes = (
(100,783,l),
(156,829,o),
(215,850,o),
(349,850,c),
(380,850,l),
(491,850,o),
(580,760,o),
(580,650,c),
(580,540,o),
(491,450,o),
(380,450,c)
);
},
{
attr = {
lineCapEnd = 1;
lineCapStart = 1;
strokeHeight = 100;
strokeWidth = 100;
};
closed = 0;
nodes = (
(100,117,l),
(156,71,o),
(215,50,o),
(349,50,c),
(380,50,l),
(491,50,o),
(580,140,o),
(580,250,c),
(580,360,o),
(491,450,o),
(380,450,c)
);
},
{
attr = {
lineCapEnd = 1;
lineCapStart = 1;
strokeHeight = 100;
strokeWidth = 100;
};
closed = 0;
nodes = (
(227,450,l),
(381,450,l)
);
}
);
width = 680;
}
);
unicode = 51;
}
{
glyphname = eight;
kernLeft = uppercaseRound;
kernRight = uppercaseRound;
layers = (
{
layerId = m002;
shapes = (
{
attr = {
lineCapEnd = 1;
lineCapStart = 1;
strokeHeight = 100;
strokeWidth = 100;
};
closed = 0;
nodes = (
(430,450,l),
(541,450,o),
(630,360,o),
(630,250,c),
(630,140,o),
(541,50,o),
(430,50,c),
(300,50,l),
(190,50,o),
(100,140,o),
(100,250,c),
(100,360,o),
(190,450,o),
(300,450,c)
);
},
{
attr = {
lineCapEnd = 1;
lineCapStart = 1;
strokeHeight = 100;
strokeWidth = 100;
};
closed = 0;
nodes = (
(300,450,l),
(190,450,o),
(100,540,o),
(100,650,c),
(100,760,o),
(190,850,o),
(300,850,c),
(430,850,l),
(541,850,o),
(630,760,o),
(630,650,c),
(630,540,o),
(541,450,o),
(430,450,c)
);
},
{
attr = {
lineCapEnd = 1;
lineCapStart = 1;
strokeHeight = 100;
strokeWidth = 100;
};
closed = 0;
nodes = (
(300,450,l),
(430,450,l)
);
}
);
width = 730;
}
);
unicode = 56;
}
{
glyphname = semicolon;
kernLeft = dot;
kernRight = dot;
layers = (
{
layerId = m002;
shapes = (
{
attr = {
lineCapEnd = 1;
lineCapStart = 1;
strokeHeight = 100;
strokeWidth = 100;
};
closed = 0;
nodes = (
(110,-99,l),
(160,-74,o),
(160,-25,o),
(160,0,c),
(160,66,l)
);
},
{
attr = {
fill = 1;
};
closed = 1;
nodes = (
(210,117,o),
(177,150,o),
(135,150,c),
(94,150,o),
(60,117,o),
(60,75,c),
(60,34,o),
(94,0,o),
(135,0,c),
(177,0,o),
(210,34,o),
(210,75,c)
);
},
{
attr = {
fill = 1;
};
closed = 1;
nodes = (
(210,620,o),
(176,654,o),
(135,654,c),
(93,654,o),
(60,620,o),
(60,579,c),
(60,538,o),
(93,504,o),
(135,504,c),
(176,504,o),
(210,538,o),
(210,579,c)
);
}
);
width = 270;
}
);
unicode = 59;
}
{
glyphname = B;
kernLeft = uppercaseStraight;
layers = (
{
anchors = (
{
name = bottom;
pos = (365,50);
},
{
name = center;
pos = (365,475);
},
{
name = top;
pos = (365,900);
}
);
layerId = m002;
shapes = (
{
attr = {
lineCapEnd = 1;
lineCapStart = 1;
strokeHeight = 100;
strokeWidth = 100;
};
closed = 0;
nodes = (
(100,850,l),
(430,850,ls),
(541,850,o),
(630,760,o),
(630,650,cs),
(630,540,o),
(541,450,o),
(430,450,c)
);
},
{
attr = {
lineCapEnd = 1;
lineCapStart = 1;
strokeHeight = 100;
strokeWidth = 100;
};
closed = 0;
nodes = (
(430,450,l),
(100,450,l)
);
},
{
attr = {
lineCapEnd = 1;
lineCapStart = 1;
strokeHeight = 100;
strokeWidth = 100;
};
closed = 0;
nodes = (
(100,50,l),
(100,850,l)
);
},
{
attr = {
lineCapEnd = 1;
lineCapStart = 1;
strokeHeight = 100;
strokeWidth = 100;
};
closed = 0;
nodes = (
(430,450,l),
(541,450,o),
(630,360,o),
(630,250,cs),
(630,140,o),
(541,50,o),
(430,50,cs),
(100,50,l)
);
}
);
width = 730;
}
);
unicode = 66;
}
{
glyphname = I;
kernLeft = uppercaseStraight;
kernRight = uppercaseStraight;
layers = (
{
anchors = (
{
name = bottom;
pos = (110,50);
},
{
name = ogonek;
pos = (160,100);
},
{
name = top;
pos = (110,900);
},
{
name = topleft;
pos = (20,900);
}
);
layerId = m002;
shapes = (
{
attr = {
lineCapEnd = 1;
lineCapStart = 1;
strokeHeight = 100;
strokeWidth = 100;
};
closed = 0;
nodes = (
(110,850,l),
(110,50,l)
);
}
);
width = 220;
}
);
unicode = 73;
}
{
glyphname = S;
kernLeft = S;
kernRight = S;
lastChange = "2025-05-23 13:45:47 +0000";
layers = (
{
.lastUpdate = 769700747.882;
anchors = (
{
name = bottom;
pos = (295,50);
},
{
name = top;
pos = (295,900);
}
);
layerId = m002;
shapes = (
{
attr = {
lineCapEnd = 1;
lineCapStart = 1;
strokeHeight = 100;
strokeWidth = 100;
};
closed = 0;
nodes = (
(46,138,l),
(95,74,o),
(156,50,o),
(242,50,c),
(360,50,l),
(471,50,o),
(560,139,o),
(560,250,cs),
(560,361,o),
(471,450,o),
(360,450,c),
(230,450,l),
(119,450,o),
(30,539,o),
(30,650,cs),
(30,760,o),
(120,850,o),
(230,850,c),
(348,850,l),
(434,850,o),
(495,826,o),
(544,762,c)
);
},
{
attr = {
lineCapEnd = 1;
lineCapStart = 1;
strokeHeight = 100;
strokeWidth = 100;
};
closed = 1;
nodes = (
(30,650,l)
);
},
{
attr = {
lineCapEnd = 1;
lineCapStart = 1;
strokeHeight = 100;
strokeWidth = 100;
};
closed = 1;
nodes = (
(560,250,l)
);
}
);
width = 660;
}
);
unicode = 83;
}
{
glyphname = U;
layers = (
{
anchors = (
{
name = bottom;
pos = (365,50);
},
{
name = ogonek;
pos = (528,123);
},
{
name = top;
pos = (365,900);
},
{
name = topright;
pos = (710,900);
}
);
layerId = m002;
shapes = (
{
attr = {
lineCapEnd = 1;
lineCapStart = 1;
strokeHeight = 100;
strokeWidth = 100;
};
closed = 0;
nodes = (
(100,850,l),
(100,315,l),
(100,169,o),
(219,50,o),
(365,50,c),
(511,50,o),
(630,169,o),
(630,315,c),
(630,850,l)
);
}
);
width = 730;
}
);
unicode = 85;
}
{
glyphname = asciicircum;
layers = (
{
layerId = m002;
shapes = (
{
attr = {
lineCapEnd = 1;
lineCapStart = 1;
strokeHeight = 100;
strokeWidth = 100;
};
closed = 0;
nodes = (
(350,850,l),
(180,670,l)
);
},
{
attr = {
lineCapEnd = 1;
lineCapStart = 1;
strokeHeight = 100;
strokeWidth = 100;
};
closed = 0;
nodes = (
(520,670,l),
(350,850,l)
);
}
);
width = 700;
}
);
unicode = 94;
}
{
glyphname = underscore;
kernLeft = dash;
kernRight = dash;
layers = (
{
layerId = m002;
shapes = (
{
attr = {
lineCapEnd = 1;
lineCapStart = 1;
strokeHeight = 100;
strokeWidth = 100;
};
closed = 0;
nodes = (
(100,50,l),
(600,50,l)
);
}
);
width = 700;
}
);
unicode = 95;
}
{
glyphname = c;
kernLeft = lowercaseRound;
layers = (
{
anchors = (
{
name = bottom;
pos = (300,50);
},
{
name = top;
pos = (300,630);
}
);
layerId = m002;
shapes = (
{
attr = {
lineCapEnd = 1;
lineCapStart = 1;
strokeHeight = 100;
strokeWidth = 100;
};
closed = 0;
nodes = (
(474,151,l),
(439,91,o),
(375,50,o),
(300,50,c),
(190,50,o),
(100,140,o),
(100,250,c),
(100,380,l),
(100,490,o),
(190,580,o),
(300,580,c),
(374,580,o),
(439,540,o),
(474,480,c)
);
}
);
width = 574;
}
);
unicode = 99;
}
{
glyphname = e;
kernLeft = lowercaseRound;
kernRight = lowercaseRound;
layers = (
{
anchors = (
{
name = bottom;
pos = (300,50);
},
{
name = ogonek;
pos = (474,144);
},
{
name = top;
pos = (300,630);
}
);
layerId = m002;
shapes = (
{
attr = {
lineCapEnd = 1;
lineCapStart = 1;
strokeHeight = 100;
strokeWidth = 100;
};
closed = 0;
nodes = (
(100,315,l),
(500,315,l)
);
},
{
attr = {
lineCapEnd = 1;
lineCapStart = 1;
strokeHeight = 100;
strokeWidth = 100;
};
closed = 0;
nodes = (
(474,151,l),
(439,91,o),
(374,50,o),
(300,50,c),
(190,50,o),
(100,140,o),
(100,250,c),
(100,380,l),
(100,490,o),
(190,580,o),
(300,580,c),
(411,580,o),
(500,490,o),
(500,380,c),
(500,315,l)
);
}
);
width = 600;
}
);
unicode = 101;
}
{
glyphname = f;
kernLeft = f;
kernRight = f;
lastChange = "2025-05-22 19:15:26 +0000";
layers = (
{
anchors = (
{
name = bottom;
pos = (300,0);
},
{
name = top;
pos = (300,1015);
}
);
layerId = m002;
shapes = (
{
attr = {
lineCapEnd = 1;
lineCapStart = 1;
strokeHeight = 100;
strokeWidth = 100;
};
closed = 0;
nodes = (
(100,580,l),
(380,580,l)
);
},
{
attr = {
lineCapEnd = 1;
lineCapStart = 1;
strokeHeight = 100;
strokeWidth = 100;
};
closed = 0;
nodes = (
(207,50,l),
(207,710,l),
(207,787,o),
(270,850,o),
(347,850,c),
(416,850,o),
(459,830,o),
(489,791,c)
);
}
);
width = 600;
}
);
unicode = 102;
}
{
glyphname = h;
kernLeft = lowercaseStraightAscender;
kernRight = lowercaseRounding;
lastChange = "2025-05-22 19:15:10 +0000";
layers = (
{
anchors = (
{
name = bottom;
pos = (300,50);
},
{
name = center;
pos = (300,533);
},
{
name = top;
pos = (300,900);
}
);
layerId = m002;
shapes = (
{
attr = {
lineCapEnd = 1;
lineCapStart = 1;
strokeHeight = 100;
strokeWidth = 100;
};
closed = 0;
nodes = (
(100,850,l),
(100,50,l)
);
},
{
attr = {
lineCapEnd = 1;
lineCapStart = 1;
strokeHeight = 100;
strokeWidth = 100;
};
closed = 0;
nodes = (
(100,380,l),
(100,490,o),
(189,580,o),
(300,580,c),
(410,580,o),
(500,490,o),
(500,380,c),
(500,50,l)
);
}
);
width = 600;
}
);
unicode = 104;
}
{
glyphname = j;
kernRight = i;
lastChange = "2025-05-22 19:15:14 +0000";
layers = (
{
.lastUpdate = 769700929.601;
layerId = m002;
shapes = (
{
attr = {
fill = 1;
};
closed = 1;
nodes = (
(358,750,o),
(391,784,o),
(391,825,c),
(391,866,o),
(358,900,o),
(316,900,c),
(275,900,o),
(241,866,o),
(241,825,c),
(241,784,o),
(275,750,o),
(316,750,cs)
);
},
{
ref = jdotless;
}
);
width = 451;
}
);
unicode = 106;
}
{
glyphname = k;
kernLeft = lowercaseAscender;
lastChange = "2025-05-22 19:15:22 +0000";
layers = (
{
anchors = (
{
name = bottom;
pos = (300,50);
},
{
name = top;
pos = (300,900);
}
);
layerId = m002;
shapes = (
{
attr = {
lineCapEnd = 1;
lineCapStart = 1;
strokeHeight = 100;
strokeWidth = 100;
};
closed = 0;
nodes = (
(100,850,l),
(100,50,l)
);
},
{
attr = {
lineCapEnd = 1;
lineCapStart = 1;
strokeHeight = 100;
strokeWidth = 100;
};
closed = 0;
nodes = (
(100,220,l),
(462,580,l)
);
},
{
attr = {
lineCapEnd = 1;
lineCapStart = 1;
strokeHeight = 100;
strokeWidth = 100;
};
closed = 0;
nodes = (
(215,335,l),
(500,51,l)
);
}
);
width = 600;
}
);
unicode = 107;
}
{
glyphname = p;
kernLeft = lowercaseStraightDecender;
kernRight = lowercaseRound;
lastChange = "2025-05-22 19:14:53 +0000";
layers = (
{
anchors = (
{
name = bottom;
pos = (300,50);
},
{
name = top;
pos = (300,630);
}
);
layerId = m002;
shapes = (
{
attr = {
lineCapEnd = "1";
lineCapStart = "1";
strokeHeight = 100;
strokeWidth = 100;
};
closed = 0;
nodes = (
(100,-220,l),
(100,580,l)
);
},
{
attr = {
lineCapEnd = "1";
lineCapStart = "1";
strokeHeight = 100;
strokeWidth = 100;
};
closed = 0;
nodes = (
(100,380,l),
(100,490,o),
(190,580,o),
(300,580,c),
(410,580,o),
(500,490,o),
(500,380,c),
(500,250,l),
(500,140,o),
(410,50,o),
(300,50,c),
(190,50,o),
(100,140,o),
(100,250,c)
);
}
);
width = 600;
}
);
unicode = 112;
}
{
glyphname = r;
kernLeft = lowercaseStraight;
lastChange = "2025-05-22 19:14:28 +0000";
layers = (
{
anchors = (
{
name = bottom;
pos = (50,50);
},
{
name = bottom_2;
pos = (100,50);
},
{
name = top;
pos = (190,630);
}
);
layerId = m002;
shapes = (
{
attr = {
lineCapEnd = 1;
lineCapStart = 1;
strokeHeight = 100;
strokeWidth = 100;
};
closed = 0;
nodes = (
(100,380,l),
(100,490,o),
(189,580,o),
(300,580,c)
);
},
{
attr = {
lineCapEnd = 1;
lineCapStart = 1;
strokeHeight = 100;
strokeWidth = 100;
};
closed = 0;
nodes = (
(100,580,l),
(100,50,l)
);
}
);
width = 380;
}
);
unicode = 114;
}
{
glyphname = w;
lastChange = "2025-05-22 19:14:36 +0000";
layers = (
{
anchors = (
{
name = bottom;
pos = (430,50);
},
{
name = top;
pos = (430,630);
}
);
layerId = m002;
shapes = (
{
attr = {
lineCapEnd = 1;
lineCapStart = 1;
strokeHeight = 100;
strokeWidth = 100;
};
closed = 0;
nodes = (
(430,580,l),
(265,50,l)
);
},
{
attr = {
lineCapEnd = 1;
lineCapStart = 1;
strokeHeight = 100;
strokeWidth = 100;
};
closed = 0;
nodes = (
(760,580,l),
(595,50,l)
);
},
{
attr = {
lineCapEnd = 1;
lineCapStart = 1;
strokeHeight = 100;
strokeWidth = 100;
};
closed = 0;
nodes = (
(595,50,l),
(430,580,l)
);
},
{
attr = {
lineCapEnd = 1;
lineCapStart = 1;
strokeHeight = 100;
strokeWidth = 100;
};
closed = 0;
nodes = (
(265,50,l),
(100,580,l)
);
}
);
width = 860;
}
);
unicode = 119;
}
{
glyphname = z;
lastChange = "2025-05-22 19:14:20 +0000";
layers = (
{
anchors = (
{
name = bottom;
pos = (300,50);
},
{
name = center;
pos = (300,340);
},
{
name = top;
pos = (300,630);
}
);
layerId = m002;
shapes = (
{
attr = {
lineCapEnd = 1;
lineCapStart = 1;
strokeHeight = 100;
strokeWidth = 100;
};
closed = 0;
nodes = (
(500,580,l),
(100,50,l)
);
},
{
attr = {
lineCapEnd = 1;
lineCapStart = 1;
strokeHeight = 100;
strokeWidth = 100;
};
closed = 0;
nodes = (
(100,50,l),
(500,50,l)
);
},
{
attr = {
lineCapEnd = 1;
lineCapStart = 1;
strokeHeight = 100;
strokeWidth = 100;
};
closed = 0;
nodes = (
(100,580,l),
(500,580,l)
);
}
);
width = 600;
}
);
unicode = 122;
}
{
glyphname = bar;
kernLeft = straightLine;
kernRight = straightLine;
layers = (
{
layerId = m002;
shapes = (
{
attr = {
lineCapEnd = 1;
lineCapStart = 1;
strokeHeight = 100;
strokeWidth = 100;
};
closed = 0;
nodes = (
(100,-271,l),
(100,1015,l)
);
}
);
width = 200;
}
);
unicode = 124;
}
{
glyphname = currency;
layers = (
{
layerId = m002;
shapes = (
{
attr = {
strokeHeight = 100;
strokeWidth = 100;
};
closed = 1;
nodes = (
(590,316,o),
(489,215,o),
(365,215,c),
(240,215,o),
(140,316,o),
(140,440,c),
(140,565,o),
(240,665,o),
(365,665,c),
(489,665,o),
(590,565,o),
(590,440,c)
);
},
{
attr = {
lineCapEnd = 1;
strokeHeight = 100;
strokeWidth = 100;
};
closed = 0;
nodes = (
(206,599,l),
(100,705,l)
);
},
{
attr = {
lineCapStart = 1;
strokeHeight = 100;
strokeWidth = 100;
};
closed = 0;
nodes = (
(630,175,l),
(524,281,l)
);
},
{
attr = {
lineCapStart = 1;
strokeHeight = 100;
strokeWidth = 100;
};
closed = 0;
nodes = (
(629,705,l),
(523,599,l)
);
},
{
attr = {
lineCapEnd = 1;
strokeHeight = 100;
strokeWidth = 100;
};
closed = 0;
nodes = (
(206,281,l),
(100,175,l)
);
}
);
width = 730;
}
);
unicode = 164;
}
{
glyphname = ordfeminine;
lastChange = "2025-05-23 06:50:30 +0000";
layers = (
{
.lastUpdate = 769675830.425;
anchors = (
{
name = bottom;
pos = (251,272);
},
{
name = ogonek;
pos = (491,282);
},
{
name = top;
pos = (251,902);
}
);
layerId = m002;
shapes = (
{
attr = {
identifier = ID0x136f40e30;
lineCapEnd = 1;
lineCapStart = 1;
strokeHeight = 100;
strokeWidth = 100;
};
closed = 0;
nodes = (
(402,450,l),
(402,850,l)
);
},
{
attr = {
identifier = ID0x136f40e30;
lineCapEnd = 1;
lineCapStart = 1;
strokeHeight = 100;
strokeWidth = 100;
};
closed = 0;
nodes = (
(402,601,l),
(402,518,o),
(334,450,o),
(251,450,c),
(167,450,o),
(100,518,o),
(100,601,c),
(100,699,l),
(100,782,o),
(167,850,o),
(251,850,c),
(334,850,o),
(402,782,o),
(402,699,c)
);
}
);
width = 502;
}
);
unicode = 170;
}
{
glyphname = eogonek;
kernLeft = lowercaseRound;
kernRight = lowercaseRound;
layers = (
{
.lastUpdate = 769700929.605;
anchors = (
{
name = top;
pos = (280,630);
}
);
layerId = m002;
shapes = (
{
ref = e;
},
{
pos = (82,4);
ref = ogonekcomb;
},
{
attr = {
lineCapEnd = 1;
lineCapStart = 1;
strokeHeight = 100;
strokeWidth = 100;
};
closed = 0;
nodes = (
(474,151,l),
(446,95,o),
(423,76,o),
(377,51,cs)
);
}
);
width = 560;
}
);
unicode = 281;
}
{
glyphname = hbar;
kernRight = lowercaseRounding;
layers = (
{
.lastUpdate = 769700929.593;
layerId = m002;
shapes = (
{
pos = (80,0);
ref = h;
},
{
attr = {
lineCapEnd = 1;
lineCapStart = 1;
strokeHeight = 100;
strokeWidth = 100;
};
closed = 0;
nodes = (
(100,750,l),
(311,750,l)
);
}
);
width = 680;
}
);
unicode = 295;
}
{
glyphname = Lslash;
layers = (
{
.lastUpdate = 769700924.503;
layerId = m002;
shapes = (
{
ref = L;
},
{
attr = {
lineCapEnd = "1";
lineCapStart = "1";
strokeHeight = 100;
strokeWidth = 100;
};
closed = 0;
nodes = (
(280,580,l),
(0,450,l)
);
}
);
width = 600;
}
);
unicode = 321;
}
{
glyphname = lslash;
layers = (
{
.lastUpdate = 769700929.623;
layerId = m002;
shapes = (
{
ref = l;
},
{
attr = {
lineCapEnd = 1;
lineCapStart = 1;
strokeHeight = 100;
strokeWidth = 100;
};
closed = 0;
nodes = (
(220,480,l),
(-20,420,l)
);
}
);
width = 330;
}
);
unicode = 322;
}
{
glyphname = longs;
kernLeft = h;
kernRight = f;
lastChange = "2025-05-23 06:47:11 +0000";
layers = (
{
.lastUpdate = 769675623.193;
anchors = (
{
name = bottom;
pos = (193,0);
},
{
name = top;
pos = (193,1015);
}
);
layerId = m002;
shapes = (
{
attr = {
identifier = ID0x144e7fe30;
lineCapEnd = 1;
lineCapStart = 1;
strokeHeight = 100;
strokeWidth = 100;
};
closed = 0;
nodes = (
(100,50,l),
(100,710,l),
(100,787,o),
(163,850,o),
(240,850,c),
(309,850,o),
(352,830,o),
(382,791,c)
);
}
);
width = 492;
}
);
unicode = 383;
}
{
glyphname = acutecomb;
layers = (
{
anchors = (
{
name = _top;
pos = (362,630);
},
{
name = top;
pos = (362,900);
}
);
layerId = m002;
shapes = (
{
attr = {
lineCapEnd = "1";
lineCapStart = "1";
strokeHeight = 100;
strokeWidth = 100;
};
closed = 0;
nodes = (
(362,725,l),
(476,820,l)
);
}
);
width = 732;
}
);
unicode = 769;
}
{
glyphname = tildecomb;
lastChange = "2025-05-22 18:50:20 +0000";
layers = (
{
.lastUpdate = 769632620.146;
anchors = (
{
name = _top;
pos = (280,630);
},
{
name = top;
pos = (280,895);
}
);
layerId = m002;
shapes = (
{
attr = {
lineCapEnd = "1";
lineCapStart = "1";
strokeHeight = 100;
strokeWidth = 100;
};
closed = 0;
nodes = (
(447,810,l),
(437,772,o),
(402,744,o),
(361,744,c),
(305,744,o),
(288,774,o),
(271,790,c),
(254,806,o),
(237,835,o),
(181,835,c),
(140,835,o),
(106,807,o),
(95,770,c)
);
}
);
width = 560;
}
);
unicode = 771;
}
{
glyphname = brevecomb;
lastChange = "2025-05-22 19:05:47 +0000";
layers = (
{
.lastUpdate = 769633547.514;
anchors = (
{
name = _top;
pos = (280,630);
},
{
name = top;
pos = (280,900);
},
{
name = top_2;
pos = (280,846);
}
);
layerId = m002;
shapes = (
{
attr = {
lineCapEnd = "1";
lineCapStart = "1";
strokeHeight = 100;
strokeWidth = 100;
};
closed = 0;
nodes = (
(140,850,l),
(140,773,o),
(203,710,o),
(280,710,c),
(358,710,o),
(420,773,o),
(420,850,c)
);
}
);
width = 560;
}
);
unicode = 774;
}
{
glyphname = dieresiscomb;
layers = (
{
anchors = (
{
name = _top;
pos = (280,630);
},
{
name = top;
pos = (280,850);
}
);
layerId = m002;
shapes = (
{
attr = {
fill = 1;
};
closed = 1;
nodes = (
(492,817,o),
(459,850,o),
(417,850,c),
(376,850,o),
(342,817,o),
(342,775,c),
(342,734,o),
(376,700,o),
(417,700,c),
(459,700,o),
(492,734,o),
(492,775,c)
);
},
{
attr = {
fill = 1;
};
closed = 1;
nodes = (
(217,817,o),
(184,850,o),
(142,850,c),
(101,850,o),
(67,817,o),
(67,775,c),
(67,734,o),
(101,700,o),
(142,700,c),
(184,700,o),
(217,734,o),
(217,775,c)
);
}
);
width = 560;
}
);
unicode = 776;
}
{
glyphname = horncomb;
layers = (
{
anchors = (
{
name = _top;
pos = (0,630);
},
{
name = top;
pos = (3,580);
}
);
layerId = m002;
shapes = (
{
attr = {
lineCapEnd = 1;
lineCapStart = 1;
strokeHeight = 100;
strokeWidth = 100;
};
closed = 0;
nodes = (
(200,580,l),
(274,580,o),
(331,599,o),
(321,694,cs)
);
}
);
width = 422;
}
);
unicode = 795;
}
{
glyphname = dieresistonos;
layers = (
{
anchors = (
{
name = _top;
pos = (278,630);
}
);
layerId = m002;
shapes = (
{
attr = {
lineCapEnd = "1";
lineCapStart = "1";
strokeHeight = 100;
strokeWidth = 100;
};
closed = 0;
nodes = (
(265,745,l),
(313,867,l)
);
},
{
attr = {
fill = 1;
strokeHeight = 0;
strokeWidth = 0;
};
closed = 1;
nodes = (
(506,817,o),
(473,850,o),
(431,850,c),
(390,850,o),
(356,817,o),
(356,775,c),
(356,734,o),
(390,700,o),
(431,700,c),
(473,700,o),
(506,734,o),
(506,775,c)
);
},
{
attr = {
fill = 1;
strokeHeight = 0;
strokeWidth = 0;
};
closed = 1;
nodes = (
(200,817,o),
(167,850,o),
(125,850,c),
(84,850,o),
(50,817,o),
(50,775,c),
(50,734,o),
(84,700,o),
(125,700,c),
(167,700,o),
(200,734,o),
(200,775,c)
);
}
);
width = 556;
}
);
unicode = 901;
}
{
glyphname = Lambda;
kernLeft = A;
kernRight = A;
layers = (
{
layerId = m002;
shapes = (
{
attr = {
lineCapEnd = 1;
lineCapStart = 1;
strokeHeight = 100;
strokeWidth = 100;
};
closed = 0;
nodes = (
(366,850,l),
(631,50,l)
);
},
{
attr = {
lineCapEnd = 1;
lineCapStart = 1;
strokeHeight = 100;
strokeWidth = 100;
};
closed = 0;
nodes = (
(101,50,l),
(366,850,l)
);
}
);
width = 732;
}
);
metricLeft = A;
metricRight = A;
unicode = 923;
}
{
glyphname = Omega;
layers = (
{
anchors = (
{
name = bottom;
pos = (500,50);
},
{
name = topleft;
pos = (148,900);
}
);
layerId = m002;
shapes = (
{
attr = {
lineCapEnd = 1;
lineCapStart = 1;
strokeHeight = 100;
strokeWidth = 100;
};
closed = 0;
nodes = (
(367,73,l),
(212,127,o),
(100,276,o),
(100,450,c),
(100,671,o),
(279,850,o),
(500,850,c),
(721,850,o),
(900,671,o),
(900,450,c),
(900,276,o),
(789,127,o),
(633,73,c)
);
},
{
attr = {
lineCapEnd = 1;
lineCapStart = 1;
strokeHeight = 100;
strokeWidth = 100;
};
closed = 0;
nodes = (
(633,50,l),
(900,50,l)
);
},
{
attr = {
lineCapEnd = 1;
lineCapStart = 1;
strokeHeight = 100;
strokeWidth = 100;
};
closed = 0;
nodes = (
(100,50,l),
(367,50,l)
);
},
{
attr = {
lineCapEnd = 1;
lineCapStart = 1;
strokeHeight = 100;
strokeWidth = 100;
};
closed = 0;
nodes = (
(633,73,l),
(633,50,l)
);
},
{
attr = {
lineCapEnd = 1;
lineCapStart = 1;
strokeHeight = 100;
strokeWidth = 100;
};
closed = 0;
nodes = (
(367,50,l),
(367,73,l)
);
}
);
width = 1000;
}
);
unicode = 937;
}
{
glyphname = beta;
layers = (
{
layerId = m002;
shapes = (
{
attr = {
lineCapEnd = 1;
lineCapStart = 1;
strokeHeight = 100;
strokeWidth = 100;
};
closed = 0;
nodes = (
(80,117,l),
(119,65,o),
(197,50,o),
(280,50,c),
(390,50,o),
(480,140,o),
(480,250,cs),
(480,360,o),
(390,450,o),
(280,450,c)
);
},
{
attr = {
lineCapEnd = 1;
lineCapStart = 1;
strokeHeight = 100;
strokeWidth = 100;
};
closed = 0;
nodes = (
(80,-220,l),
(80,650,l),
(80,760,o),
(169,850,o),
(280,850,cs),
(390,850,o),
(480,760,o),
(480,650,cs),
(480,539,o),
(390,450,o),
(280,450,c)
);
},
{
attr = {
lineCapEnd = 1;
lineCapStart = 1;
strokeHeight = 100;
strokeWidth = 100;
};
closed = 1;
nodes = (
(480,250,l)
);
},
{
attr = {
lineCapEnd = 1;
lineCapStart = 1;
strokeHeight = 100;
strokeWidth = 100;
};
closed = 1;
nodes = (
(480,650,l)
);
},
{
attr = {
lineCapEnd = 1;
lineCapStart = 1;
strokeHeight = 100;
strokeWidth = 100;
};
closed = 1;
nodes = (
(280,850,l)
);
}
);
width = 560;
}
);
unicode = 946;
}
{
glyphname = delta;
layers = (
{
layerId = m002;
shapes = (
{
attr = {
lineCapEnd = 1;
lineCapStart = 1;
strokeHeight = 100;
strokeWidth = 100;
};
closed = 0;
nodes = (
(333,531,l),
(137,432,o),
(100,377,o),
(100,249,c),
(100,121,o),
(204,50,o),
(333,50,c),
(461,50,o),
(565,121,o),
(565,249,c),
(565,406,o),
(443,464,o),
(333,531,c),
(268,569,o),
(183,591,o),
(189,678,c),
(194,742,o),
(246,795,o),
(345,795,c),
(405,795,o),
(447,773,o),
(503,725,c)
);
}
);
width = 665;
}
);
unicode = 948;
}
{
glyphname = eta;
layers = (
{
anchors = (
{
name = top;
pos = (300,630);
}
);
layerId = m002;
shapes = (
{
attr = {
lineCapEnd = 1;
lineCapStart = 1;
strokeHeight = 100;
strokeWidth = 100;
};
closed = 0;
nodes = (
(500,-220,l),
(500,380,l),
(500,490,o),
(411,580,o),
(300,580,cs),
(190,580,o),
(100,490,o),
(100,380,c)
);
},
{
attr = {
lineCapEnd = 1;
lineCapStart = 1;
strokeHeight = 100;
strokeWidth = 100;
};
closed = 0;
nodes = (
(100,50,l),
(100,580,l)
);
},
{
attr = {
lineCapEnd = 1;
lineCapStart = 1;
strokeHeight = 100;
strokeWidth = 100;
};
closed = 1;
nodes = (
(300,580,l)
);
}
);
width = 600;
}
);
unicode = 951;
}
{
glyphname = theta;
kernLeft = lowercaseRound;
kernRight = lowercaseRound;
layers = (
{
.lastUpdate = 769700931.053;
layerId = m002;
shapes = (
{
ref = o;
},
{
attr = {
strokeHeight = 100;
strokeWidth = 100;
};
closed = 0;
nodes = (
(80,315,l),
(480,315,l)
);
}
);
width = 600;
}
);
unicode = 952;
}
{
glyphname = sigma;
kernLeft = lowercaseRound;
lastChange = "2025-05-23 08:48:47 +0000";
layers = (
{
layerId = m002;
shapes = (
{
attr = {
strokeHeight = 100;
strokeWidth = 100;
};
closed = 1;
nodes = (
(411,580,o),
(500,490,o),
(500,380,cs),
(500,250,ls),
(500,140,o),
(411,50,o),
(300,50,cs),
(190,50,o),
(100,140,o),
(100,250,cs),
(100,380,ls),
(100,490,o),
(190,580,o),
(300,580,cs)
);
},
{
attr = {
lineCapEnd = 1;
lineCapStart = 1;
strokeHeight = 100;
strokeWidth = 100;
};
closed = 0;
nodes = (
(600,580,l),
(300,580,l)
);
}
);
width = 700;
}
);
unicode = 963;
}
{
glyphname = "Lje-cy";
layers = (
{
layerId = m002;
shapes = (
{
attr = {
identifier = ID0x28a2d3220;
lineCapEnd = "1";
lineCapStart = "1";
strokeHeight = 100;
strokeWidth = 100;
};
closed = 0;
nodes = (
(620,50,l),
(890,50,l),
(1001,50,o),
(1090,140,o),
(1090,250,c),
(1090,360,o),
(1001,450,o),
(890,450,c),
(620,450,l)
);
},
{
attr = {
identifier = ID0x28a2d3220;
lineCapEnd = "1";
lineCapStart = "1";
strokeHeight = 100;
strokeWidth = 100;
};
closed = 0;
nodes = (
(620,850,l),
(620,50,l)
);
},
{
attr = {
identifier = ID0x10194eb50;
lineCapEnd = 1;
lineCapStart = 1;
strokeHeight = 100;
strokeWidth = 100;
};
closed = 0;
nodes = (
(251,850,l),
(251,414,l),
(251,278,o),
(197,147,o),
(100,50,c)
);
},
{
attr = {
identifier = ID0x10194eb50;
lineCapEnd = 1;
lineCapStart = 1;
strokeHeight = 100;
strokeWidth = 100;
};
closed = 0;
nodes = (
(620,50,l),
(620,850,l)
);
},
{
attr = {
identifier = ID0x10194eb50;
lineCapEnd = 1;
lineCapStart = 1;
strokeHeight = 100;
strokeWidth = 100;
};
closed = 0;
nodes = (
(620,850,l),
(251,850,l)
);
}
);
width = 1190;
}
);
metricLeft = "El-cy";
metricRight = "Softsign-cy";
unicode = 1033;
}
{
glyphname = "Sha-cy";
layers = (
{
layerId = m002;
shapes = (
{
attr = {
lineCapEnd = "1";
lineCapStart = "1";
strokeHeight = 100;
strokeWidth = 100;
};
closed = 0;
nodes = (
(100,50,l),
(100,850,l)
);
},
{
attr = {
lineCapEnd = "1";
lineCapStart = "1";
strokeHeight = 100;
strokeWidth = 100;
};
closed = 0;
nodes = (
(500,850,l),
(500,50,l)
);
},
{
attr = {
lineCapEnd = "1";
lineCapStart = "1";
strokeHeight = 100;
strokeWidth = 100;
};
closed = 0;
nodes = (
(900,850,l),
(900,50,l)
);
},
{
attr = {
lineCapEnd = "1";
lineCapStart = "1";
strokeHeight = 100;
strokeWidth = 100;
};
closed = 0;
nodes = (
(100,50,l),
(900,50,l)
);
}
);
width = 1000;
}
);
unicode = 1064;
}
{
glyphname = "el-cy";
kernRight = lowercaseStraight;
layers = (
{
layerId = m002;
shapes = (
{
attr = {
lineCapEnd = 1;
lineCapStart = 1;
strokeHeight = 100;
strokeWidth = 100;
};
closed = 0;
nodes = (
(200,580,l),
(200,292,l),
(200,201,o),
(164,114,o),
(100,50,c)
);
},
{
attr = {
lineCapEnd = 1;
lineCapStart = 1;
strokeHeight = 100;
strokeWidth = 100;
};
closed = 0;
nodes = (
(580,50,l),
(580,580,l)
);
},
{
attr = {
lineCapEnd = 1;
lineCapStart = 1;
strokeHeight = 100;
strokeWidth = 100;
};
closed = 0;
nodes = (
(580,580,l),
(200,580,l)
);
}
);
width = 680;
}
);
unicode = 1083;
}
{
glyphname = "sha-cy";
kernLeft = lowercaseStraight;
kernRight = lowercaseStraight;
layers = (
{
layerId = m002;
shapes = (
{
attr = {
lineCapEnd = 1;
lineCapStart = 1;
strokeHeight = 100;
strokeWidth = 100;
};
closed = 0;
nodes = (
(100,50,l),
(100,580,l)
);
},
{
attr = {
lineCapEnd = 1;
lineCapStart = 1;
strokeHeight = 100;
strokeWidth = 100;
};
closed = 0;
nodes = (
(430,580,l),
(430,50,l)
);
},
{
attr = {
lineCapEnd = 1;
lineCapStart = 1;
strokeHeight = 100;
strokeWidth = 100;
};
closed = 0;
nodes = (
(760,580,l),
(760,50,l)
);
},
{
attr = {
lineCapEnd = 1;
lineCapStart = 1;
strokeHeight = 100;
strokeWidth = 100;
};
closed = 0;
nodes = (
(100,50,l),
(760,50,l)
);
}
);
width = 860;
}
);
unicode = 1096;
}
{
glyphname = "dje-cy";
layers = (
{
.lastUpdate = 769700944.769;
layerId = m002;
shapes = (
{
ref = hbar;
},
{
attr = {
lineCapEnd = 1;
lineCapStart = 1;
strokeHeight = 100;
strokeWidth = 100;
};
closed = 0;
nodes = (
(454,-88,l),
(524,-88,o),
(580,-31,o),
(580,40,c),
(580,47,l)
);
}
);
width = 680;
}
);
unicode = 1106;
}
{
glyphname = "lje-cy";
layers = (
{
layerId = m002;
shapes = (
{
attr = {
identifier = ID0x28a2148f0;
lineCapEnd = 1;
lineCapStart = 1;
strokeHeight = 100;
strokeWidth = 100;
};
closed = 1;
nodes = (
(520,580,l),
(520,50,l)
);
},
{
attr = {
identifier = ID0x28a2d3110;
lineCapEnd = 1;
lineCapStart = 1;
strokeHeight = 100;
strokeWidth = 100;
};
closed = 0;
nodes = (
(200,580,l),
(200,292,l),
(200,201,o),
(164,114,o),
(100,50,c)
);
},
{
attr = {
identifier = ID0x28a2148f0;
lineCapEnd = 1;
lineCapStart = 1;
strokeHeight = 100;
strokeWidth = 100;
};
closed = 0;
nodes = (
(520,50,l),
(729,50,l),
(801,50,o),
(860,109,o),
(860,183,c),
(860,256,o),
(801,315,o),
(729,315,c),
(520,315,l)
);
},
{
attr = {
identifier = ID0x28a2d3110;
lineCapEnd = 1;
lineCapStart = 1;
strokeHeight = 100;
strokeWidth = 100;
};
closed = 0;
nodes = (
(520,580,l),
(200,580,l)
);
}
);
width = 960;
}
);
metricLeft = "el-cy";
metricRight = "softsign-cy";
unicode = 1113;
}
{
glyphname = "nje-cy";
layers = (
{
layerId = m002;
shapes = (
{
attr = {
identifier = ID0x2a88b2400;
lineCapEnd = 1;
lineCapStart = 1;
strokeHeight = 100;
strokeWidth = 100;
};
closed = 0;
nodes = (
(100,580,l),
(100,50,l)
);
},
{
attr = {
identifier = ID0x2a88b2400;
lineCapEnd = 1;
lineCapStart = 1;
strokeHeight = 100;
strokeWidth = 100;
};
closed = 0;
nodes = (
(100,316,l),
(440,316,l)
);
},
{
attr = {
identifier = ID0x2a8875f50;
lineCapEnd = 1;
lineCapStart = 1;
strokeHeight = 100;
strokeWidth = 100;
};
closed = 0;
nodes = (
(440,50,l),
(649,50,l),
(721,50,o),
(780,109,o),
(780,183,c),
(780,256,o),
(721,315,o),
(649,315,c),
(440,315,l)
);
},
{
attr = {
identifier = ID0x2a8875f50;
lineCapEnd = 1;
lineCapStart = 1;
strokeHeight = 100;
strokeWidth = 100;
};
closed = 0;
nodes = (
(440,580,l),
(440,50,l)
);
}
);
width = 880;
}
);
metricLeft = "en-cy";
metricRight = "softsign-cy";
unicode = 1114;
}
{
glyphname = "yat-cy";
layers = (
{
layerId = m002;
shapes = (
{
attr = {
identifier = ID0x2b78e86c0;
lineCapEnd = "1";
lineCapStart = "1";
strokeHeight = 100;
strokeWidth = 100;
};
closed = 0;
nodes = (
(299,50,l),
(529,50,l),
(640,50,o),
(729,140,o),
(729,250,c),
(729,360,o),
(640,450,o),
(529,450,c),
(299,450,l)
);
},
{
attr = {
identifier = ID0x2b78e86c0;
lineCapEnd = "1";
lineCapStart = "1";
strokeHeight = 100;
strokeWidth = 100;
};
closed = 0;
nodes = (
(299,850,l),
(299,50,l)
);
},
{
attr = {
lineCapEnd = "1";
lineCapStart = "1";
strokeHeight = 100;
strokeWidth = 100;
};
closed = 0;
nodes = (
(99,680,l),
(499,680,l)
);
}
);
width = 830;
}
);
unicode = 1123;
}
{
glyphname = "Geupturn-cy";
layers = (
{
.lastUpdate = 769700944.169;
layerId = m002;
shapes = (
{
ref = "Ge-cy";
},
{
attr = {
lineCapEnd = 1;
lineCapStart = 1;
strokeHeight = 100;
strokeWidth = 100;
};
closed = 0;
nodes = (
(620,850,l),
(620,1010,l)
);
}
);
width = 720;
}
);
unicode = 1168;
}
{
glyphname = "Gestroke-cy";
layers = (
{
.lastUpdate = 769700944.171;
layerId = m002;
shapes = (
{
pos = (100,0);
ref = "Ge-cy";
},
{
attr = {
lineCapEnd = 1;
lineCapStart = 1;
strokeHeight = 100;
strokeWidth = 100;
};
closed = 0;
nodes = (
(100,450,l),
(600,450,l)
);
}
);
width = 820;
}
);
unicode = 1170;
}
{
glyphname = "gestroke-cy";
layers = (
{
.lastUpdate = 769700931.022;
layerId = m002;
shapes = (
{
pos = (100,0);
ref = "ge-cy";
},
{
attr = {
lineCapEnd = "1";
lineCapStart = "1";
strokeHeight = 100;
strokeWidth = 100;
};
closed = 0;
nodes = (
(100,300,l),
(450,300,l)
);
}
);
width = 650;
}
);
unicode = 1171;
}
{
glyphname = "zhedescender-cy";
layers = (
{
.lastUpdate = 769700945.027;
layerId = m002;
shapes = (
{
ref = "zhe-cy";
},
{
attr = {
lineCapEnd = "1";
lineCapStart = "1";
strokeHeight = 100;
strokeWidth = 100;
};
closed = 0;
nodes = (
(800,50,l),
(900,50,l)
);
},
{
attr = {
lineCapEnd = "1";
lineCapStart = "1";
strokeHeight = 100;
strokeWidth = 100;
};
closed = 0;
nodes = (
(900,50,l),
(900,-50,l)
);
}
);
width = 1000;
}
);
unicode = 1175;
}
{
glyphname = "Kadescender-cy";
layers = (
{
.lastUpdate = 769700931.027;
layerId = m002;
shapes = (
{
ref = "Ka-cy";
},
{
attr = {
lineCapEnd = "1";
lineCapStart = "1";
strokeHeight = 100;
strokeWidth = 100;
};
closed = 0;
nodes = (
(630,50,l),
(730,50,l)
);
},
{
attr = {
lineCapEnd = "1";
lineCapStart = "1";
strokeHeight = 100;
strokeWidth = 100;
};
closed = 0;
nodes = (
(730,50,l),
(730,-50,l)
);
}
);
width = 830;
}
);
unicode = 1178;
}
{
glyphname = "endescender-cy";
kernLeft = lowercaseStraight;
layers = (
{
.lastUpdate = 769700945.025;
layerId = m002;
shapes = (
{
ref = "en-cy";
},
{
attr = {
lineCapEnd = "1";
lineCapStart = "1";
strokeHeight = 100;
strokeWidth = 100;
};
closed = 0;
nodes = (
(500,50,l),
(600,50,l)
);
},
{
attr = {
lineCapEnd = "1";
lineCapStart = "1";
strokeHeight = 100;
strokeWidth = 100;
};
closed = 0;
nodes = (
(600,50,l),
(600,-50,l)
);
}
);
width = 700;
}
);
unicode = 1187;
}
{
export = 0;
glyphname = "Tedescender-cy";
layers = (
{
.lastUpdate = 769700931.022;
layerId = m002;
shapes = (
{
ref = "Te-cy";
},
{
attr = {
lineCapEnd = "1";
lineCapStart = "1";
strokeHeight = 100;
strokeWidth = 100;
};
closed = 0;
nodes = (
(365,50,l),
(465,50,l)
);
},
{
attr = {
lineCapEnd = "1";
lineCapStart = "1";
strokeHeight = 100;
strokeWidth = 100;
};
closed = 0;
nodes = (
(465,50,l),
(465,-50,l)
);
}
);
width = 730;
}
);
unicode = 1196;
}
{
export = 0;
glyphname = "tedescender-cy";
layers = (
{
.lastUpdate = 769700945.343;
layerId = m002;
shapes = (
{
ref = "te-cy";
},
{
attr = {
lineCapEnd = "1";
lineCapStart = "1";
strokeHeight = 100;
strokeWidth = 100;
};
closed = 0;
nodes = (
(400,50,l),
(400,-67,l)
);
},
{
attr = {
lineCapEnd = "1";
lineCapStart = "1";
strokeHeight = 100;
strokeWidth = 100;
};
closed = 0;
nodes = (
(300,50,l),
(400,50,l)
);
}
);
width = 600;
}
);
unicode = 1197;
}
{
glyphname = "ustraight-cy";
layers = (
{
.lastUpdate = 769700945.024;
layerId = m002;
shapes = (
{
ref = v;
},
{
attr = {
lineCapEnd = 1;
lineCapStart = 1;
strokeHeight = 100;
strokeWidth = 100;
};
closed = 0;
nodes = (
(300,69,l),
(300,-220,l)
);
}
);
width = 600;
}
);
unicode = 1199;
}
{
glyphname = "Ustraightstroke-cy";
layers = (
{
.lastUpdate = 769700931.03;
layerId = m002;
shapes = (
{
ref = Y;
},
{
attr = {
lineCapEnd = 1;
lineCapStart = 1;
strokeHeight = 100;
strokeWidth = 100;
};
closed = 0;
nodes = (
(100,450,l),
(630,450,l)
);
}
);
width = 730;
}
);
unicode = 1200;
}
{
glyphname = "ustraightstroke-cy";
layers = (
{
.lastUpdate = 769700945.028;
layerId = m002;
shapes = (
{
ref = "ustraight-cy";
},
{
attr = {
lineCapEnd = 1;
lineCapStart = 1;
strokeHeight = 100;
strokeWidth = 100;
};
closed = 0;
nodes = (
(125,50,l),
(475,50,l)
);
}
);
width = 600;
}
);
unicode = 1201;
}
{
glyphname = "Chedescender-cy";
layers = (
{
.lastUpdate = 769700931.03;
layerId = m002;
shapes = (
{
ref = "Che-cy";
},
{
attr = {
lineCapEnd = "1";
lineCapStart = "1";
strokeHeight = 100;
strokeWidth = 100;
};
closed = 0;
nodes = (
(630,50,l),
(730,50,l)
);
},
{
attr = {
lineCapEnd = "1";
lineCapStart = "1";
strokeHeight = 100;
strokeWidth = 100;
};
closed = 0;
nodes = (
(730,50,l),
(730,-50,l)
);
}
);
width = 830;
}
);
unicode = 1206;
}
{
export = 0;
glyphname = "Gedescender-cy";
layers = (
{
.lastUpdate = 769700931.027;
layerId = m002;
shapes = (
{
ref = "Ge-cy";
},
{
attr = {
lineCapEnd = "1";
lineCapStart = "1";
strokeHeight = 100;
strokeWidth = 100;
};
closed = 0;
nodes = (
(100,50,l),
(200,50,l)
);
},
{
attr = {
lineCapEnd = "1";
lineCapStart = "1";
strokeHeight = 100;
strokeWidth = 100;
};
closed = 0;
nodes = (
(200,50,l),
(200,-50,l)
);
}
);
width = 720;
}
);
unicode = 1270;
}
{
export = 0;
glyphname = "khoKhon-thai";
kernLeft = lowercaseRound;
kernRight = lowercaseRound;
layers = (
{
layerId = m002;
shapes = (
{
attr = {
lineCapEnd = 1;
lineCapStart = 1;
strokeWidth = 100;
};
closed = 0;
nodes = (
(576,0,l),
(576,393,l),
(576,523,l),
(576,589,o),
(523,642,o),
(457,642,c),
(391,642,o),
(338,589,o),
(338,523,c),
(338,589,o),
(285,642,o),
(219,642,c),
(154,642,o),
(100,589,o),
(100,523,c),
(100,393,l),
(100,0,l)
);
},
{
attr = {
lineCapEnd = 1;
lineCapStart = 1;
strokeWidth = 100;
};
closed = 0;
nodes = (
(338,309,l),
(207,309,o),
(100,203,o),
(100,72,c)
);
}
);
width = 676;
}
);
unicode = 3589;
}
{
export = 0;
glyphname = "khoRakhang-thai";
kernLeft = lowercaseRound;
kernRight = lowercaseRound;
layers = (
{
layerId = m002;
shapes = (
{
attr = {
lineCapEnd = 1;
lineCapStart = 1;
strokeHeight = 100;
strokeWidth = 100;
};
closed = 0;
nodes = (
(624,630,l),
(624,251,l),
(624,132,o),
(543,22,o),
(426,3,c),
(277,-21,o),
(148,93,o),
(148,238,c),
(148,316,o),
(197,384,o),
(237,427,c),
(271,463,o),
(291,509,o),
(291,558,c),
(291,630,l),
(100,630,l),
(100,558,l)
);
},
{
attr = {
lineCapEnd = 1;
lineCapStart = 1;
strokeHeight = 100;
strokeWidth = 100;
};
closed = 0;
nodes = (
(148,238,l),
(148,0,l)
);
}
);
width = 724;
}
);
unicode = 3590;
}
{
export = 0;
glyphname = "choChan-thai";
layers = (
{
layerId = m002;
shapes = (
{
attr = {
lineCapEnd = 1;
lineCapStart = 1;
strokeHeight = 100;
strokeWidth = 100;
};
closed = 0;
nodes = (
(279,315,l),
(161,315,l)
);
},
{
attr = {
lineCapEnd = 1;
lineCapStart = 1;
strokeHeight = 100;
strokeWidth = 100;
};
closed = 0;
nodes = (
(100,582,l),
(160,612,o),
(234,630,o),
(314,630,c),
(466,630,o),
(590,507,o),
(590,355,c),
(590,276,l),
(590,124,o),
(466,0,o),
(314,0,c),
(279,0,l)
);
},
{
attr = {
lineCapEnd = 1;
lineCapStart = 1;
strokeHeight = 100;
strokeWidth = 100;
};
closed = 0;
nodes = (
(279,0,l),
(279,315,l)
);
}
);
width = 690;
}
);
unicode = 3592;
}
{
export = 0;
glyphname = "soSo-thai";
layers = (
{
layerId = m002;
shapes = (
{
attr = {
strokeWidth = 1;
};
closed = 0;
nodes = (
(4.277,2.457,l),
(4.277,1.461,o),
(3.596,0.537,o),
(2.613,0.377,c),
(1.36,0.174,o),
(0.277,1.135,o),
(0.277,2.35,c),
(0.277,3.005,o),
(0.687,3.58,o),
(1.028,3.945,c),
(1.309,4.246,o),
(1.477,4.635,o),
(1.477,5.046,c),
(1.477,5.65,l)
);
},
{
attr = {
strokeWidth = 1;
};
closed = 0;
nodes = (
(3.054,4.279,l),
(3.729,4.279,o),
(4.277,4.826,o),
(4.277,5.502,c),
(4.277,5.65,l)
);
},
{
attr = {
strokeWidth = 1;
};
closed = 0;
nodes = (
(3.054,4.279,l),
(3.729,4.279,o),
(4.277,3.732,o),
(4.277,3.056,c),
(4.277,2.457,l)
);
},
{
attr = {
strokeWidth = 1;
};
closed = 0;
nodes = (
(1.477,5.65,l),
(1.477,5.256,o),
(1.063,4.936,o),
(0.438,4.936,c),
(0.043,4.936,o),
(-0.276,5.256,o),
(-0.276,5.65,c)
);
}
);
width = 600;
}
);
unicode = 3595;
}
{
export = 0;
glyphname = "choChoe-thai";
layers = (
{
layerId = m002;
shapes = (
{
attr = {
strokeWidth = 1;
};
closed = 0;
nodes = (
(17,188,l),
(17,84,o),
(101,0,o),
(205,0,c),
(309,0,o),
(393,84,o),
(393,188,c),
(393,630,l)
);
},
{
attr = {
strokeWidth = 1;
};
closed = 0;
nodes = (
(-241,21,l),
(-270,17,l),
(-331,8,o),
(-387,56,o),
(-387,119,c),
(-387,217,l),
(-387,311,o),
(-316,372,o),
(-227,372,c),
(-384,466,l)
);
},
{
attr = {
strokeWidth = 1;
};
closed = 0;
nodes = (
(-384,466,l),
(-384,577,o),
(-304,630,o),
(-185,630,c),
(-182,630,l),
(-72,630,o),
(17,541,o),
(17,431,c),
(17,8,l)
);
}
);
width = 600;
}
);
unicode = 3596;
}
{
glyphname = baht;
layers = (
{
.lastUpdate = 769700879.432;
layerId = m002;
shapes = (
{
attr = {
lineCapEnd = 1;
lineCapStart = 1;
strokeHeight = 100;
strokeWidth = 100;
};
closed = 0;
nodes = (
(315,-50,l),
(315,950,l)
);
},
{
ref = B;
}
);
width = 730;
}
);
unicode = 3647;
}
{
glyphname = zerosuperior;
layers = (
{
layerId = m002;
shapes = (
{
attr = {
identifier = ID0x15af739a0;
strokeHeight = 100;
strokeWidth = 100;
};
closed = 1;
nodes = (
(365,610,o),
(305,550,o),
(232,550,c),
(159,550,o),
(100,610,o),
(100,683,c),
(100,818,l),
(100,891,o),
(159,950,o),
(232,950,c),
(305,950,o),
(365,891,o),
(365,818,c),
(365,683,l)
);
}
);
width = 465;
}
);
metricLeft = zero;
metricRight = zero;
unicode = 8304;
}
{
glyphname = sixsuperior;
layers = (
{
layerId = m002;
shapes = (
{
attr = {
identifier = ID0x15af7f6b0;
strokeHeight = 100;
strokeWidth = 100;
};
closed = 1;
nodes = (
(365,610,o),
(306,550,o),
(232,550,c),
(159,550,o),
(100,610,o),
(100,683,c),
(100,756,o),
(159,815,o),
(232,815,c),
(306,815,o),
(365,756,o),
(365,683,c)
);
},
{
attr = {
identifier = ID0x15af7f6b0;
lineCapEnd = 1;
lineCapStart = 1;
strokeHeight = 100;
strokeWidth = 100;
};
closed = 0;
nodes = (
(353,901,l),
(331,930,o),
(298,950,o),
(242,950,c),
(232,950,l),
(159,950,o),
(100,891,o),
(100,818,c),
(100,683,l)
);
}
);
width = 465;
}
);
metricLeft = six;
metricRight = six;
unicode = 8310;
}
{
glyphname = bitcoin;
layers = (
{
layerId = m002;
shapes = (
{
attr = {
lineCapEnd = 1;
lineCapStart = 1;
strokeHeight = 100;
strokeWidth = 100;
};
closed = 0;
nodes = (
(530,450,l),
(641,450,o),
(730,361,o),
(730,250,c),
(730,140,o),
(641,50,o),
(530,50,c),
(200,50,l),
(200,850,l),
(530,850,l),
(641,850,o),
(730,761,o),
(730,650,c),
(730,540,o),
(641,450,o),
(530,450,c)
);
},
{
attr = {
lineCapEnd = 1;
lineCapStart = 1;
strokeHeight = 100;
strokeWidth = 100;
};
closed = 0;
nodes = (
(530,450,l),
(200,450,l)
);
},
{
attr = {
lineCapEnd = 1;
lineCapStart = 1;
strokeHeight = 100;
strokeWidth = 100;
};
closed = 0;
nodes = (
(200,50,l),
(100,50,l)
);
},
{
attr = {
lineCapEnd = 1;
lineCapStart = 1;
strokeHeight = 100;
strokeWidth = 100;
};
closed = 0;
nodes = (
(200,850,l),
(100,850,l)
);
},
{
attr = {
lineCapEnd = 1;
lineCapStart = 1;
strokeHeight = 100;
strokeWidth = 100;
};
closed = 0;
nodes = (
(300,-50,l),
(300,50,l)
);
},
{
attr = {
lineCapEnd = 1;
lineCapStart = 1;
strokeHeight = 100;
strokeWidth = 100;
};
closed = 0;
nodes = (
(500,-50,l),
(500,50,l)
);
},
{
attr = {
lineCapEnd = 1;
lineCapStart = 1;
strokeHeight = 100;
strokeWidth = 100;
};
closed = 0;
nodes = (
(300,850,l),
(300,950,l)
);
},
{
attr = {
lineCapEnd = 1;
lineCapStart = 1;
strokeHeight = 100;
strokeWidth = 100;
};
closed = 0;
nodes = (
(500,850,l),
(500,950,l)
);
}
);
width = 830;
}
);
unicode = 8383;
}
{
glyphname = oneeighth;
layers = (
{
.lastUpdate = 769700931.087;
layerId = m002;
shapes = (
{
attr = {
identifier = ID0x2bbdd0dd0;
lineCapEnd = "1";
lineCapStart = "1";
strokeHeight = 100;
strokeWidth = 100;
};
closed = 0;
nodes = (
(220,850,l),
(220,370,l)
);
},
{
attr = {
identifier = ID0x2bbdd0dd0;
lineCapEnd = "1";
lineCapStart = "1";
strokeHeight = 100;
strokeWidth = 100;
};
closed = 0;
nodes = (
(100,785,l),
(220,850,l)
);
},
{
pos = (120,0);
ref = fraction;
},
{
attr = {
identifier = ID0x2bc375c10;
lineCapEnd = 1;
lineCapStart = 1;
strokeHeight = 100;
strokeWidth = 100;
};
closed = 0;
nodes = (
(937,290,l),
(1004,290,o),
(1057,236,o),
(1057,170,c),
(1057,104,o),
(1004,50,o),
(937,50,c),
(859,50,l),
(793,50,o),
(739,104,o),
(739,170,c),
(739,236,o),
(793,290,o),
(859,290,c)
);
},
{
attr = {
identifier = ID0x2bc375c10;
lineCapEnd = 1;
lineCapStart = 1;
strokeHeight = 100;
strokeWidth = 100;
};
closed = 0;
nodes = (
(859,290,l),
(793,290,o),
(739,344,o),
(739,410,c),
(739,476,o),
(793,530,o),
(859,530,c),
(937,530,l),
(1004,530,o),
(1057,476,o),
(1057,410,c),
(1057,344,o),
(1004,290,o),
(937,290,c)
);
},
{
attr = {
identifier = ID0x2bc375c10;
lineCapEnd = 1;
lineCapStart = 1;
strokeHeight = 100;
strokeWidth = 100;
};
closed = 0;
nodes = (
(859,290,l),
(937,290,l)
);
}
);
width = 1157;
}
);
unicode = 8539;
}
{
glyphname = threeeighths;
layers = (
{
.lastUpdate = 769700931.077;
layerId = m002;
shapes = (
{
pos = (235,0);
ref = fraction;
},
{
attr = {
identifier = ID0x2bc412590;
lineCapEnd = "1";
lineCapStart = "1";
strokeHeight = 100;
strokeWidth = 100;
};
closed = 0;
nodes = (
(100,810,l),
(134,837,o),
(169,850,o),
(249,850,c),
(268,850,l),
(335,850,o),
(388,796,o),
(388,730,c),
(388,664,o),
(335,610,o),
(268,610,c)
);
},
{
attr = {
identifier = ID0x2bc412590;
lineCapEnd = "1";
lineCapStart = "1";
strokeHeight = 100;
strokeWidth = 100;
};
closed = 0;
nodes = (
(100,410,l),
(134,383,o),
(169,370,o),
(249,370,c),
(268,370,l),
(335,370,o),
(388,424,o),
(388,490,c),
(388,556,o),
(335,610,o),
(268,610,c)
);
},
{
attr = {
identifier = ID0x2bc412590;
lineCapEnd = "1";
lineCapStart = "1";
strokeHeight = 100;
strokeWidth = 100;
};
closed = 0;
nodes = (
(176,610,l),
(269,610,l)
);
},
{
attr = {
identifier = ID0x2bc375c10;
lineCapEnd = "1";
lineCapStart = "1";
strokeHeight = 100;
strokeWidth = 100;
};
closed = 0;
nodes = (
(1047,290,l),
(1114,290,o),
(1167,236,o),
(1167,170,c),
(1167,104,o),
(1114,50,o),
(1047,50,c),
(969,50,l),
(903,50,o),
(849,104,o),
(849,170,c),
(849,236,o),
(903,290,o),
(969,290,c)
);
},
{
attr = {
identifier = ID0x2bc375c10;
lineCapEnd = "1";
lineCapStart = "1";
strokeHeight = 100;
strokeWidth = 100;
};
closed = 0;
nodes = (
(969,290,l),
(903,290,o),
(849,344,o),
(849,410,c),
(849,476,o),
(903,530,o),
(969,530,c),
(1047,530,l),
(1114,530,o),
(1167,476,o),
(1167,410,c),
(1167,344,o),
(1114,290,o),
(1047,290,c)
);
},
{
attr = {
identifier = ID0x2bc375c10;
lineCapEnd = "1";
lineCapStart = "1";
strokeHeight = 100;
strokeWidth = 100;
};
closed = 0;
nodes = (
(969,290,l),
(1047,290,l)
);
}
);
width = 1267;
}
);
unicode = 8540;
}
{
glyphname = greaterequal;
layers = (
{
.lastUpdate = 769701801.03;
layerId = m002;
shapes = (
{
attr = {
identifier = ID0x1520695f0;
lineCapEnd = 1;
lineCapStart = 1;
strokeHeight = 100;
strokeWidth = 100;
};
closed = 0;
nodes = (
(600,400,l),
(100,580,l)
);
},
{
attr = {
identifier = ID0x1520695f0;
lineCapEnd = 1;
lineCapStart = 1;
strokeHeight = 100;
strokeWidth = 100;
};
closed = 0;
nodes = (
(100,220,l),
(600,400,l)
);
},
{
ref = underscore;
}
);
width = 700;
}
);
unicode = 8805;
}
{
glyphname = noEntry;
layers = (
{
.lastUpdate = 769700836.236;
layerId = m002;
shapes = (
{
ref = mediumWhiteCircle;
},
{
attr = {
lineCapEnd = 1;
lineCapStart = 1;
strokeHeight = 100;
strokeWidth = 100;
};
closed = 0;
nodes = (
(320,390,l),
(800,390,l)
);
}
);
width = 1120;
}
);
unicode = 9940;
}
{
glyphname = whitecornerbracketleft;
layers = (
{
background = {
shapes = (
{
closed = 0;
nodes = (
(432,850,l)
);
},
{
closed = 0;
nodes = (
(432,680,l)
);
}
);
};
layerId = m002;
shapes = (
{
attr = {
lineCapEnd = 1;
lineCapStart = 1;
strokeHeight = 100;
strokeWidth = 100;
};
closed = 0;
nodes = (
(459,850,l),
(459,680,l)
);
},
{
attr = {
lineCapEnd = 1;
lineCapStart = 1;
strokeHeight = 100;
strokeWidth = 100;
};
closed = 0;
nodes = (
(270,365,l),
(100,365,l)
);
},
{
attr = {
lineCapEnd = 1;
lineCapStart = 1;
strokeHeight = 100;
strokeWidth = 100;
};
closed = 0;
nodes = (
(270,680,l),
(459,680,l)
);
},
{
attr = {
lineCapEnd = 1;
lineCapStart = 1;
strokeHeight = 100;
strokeWidth = 100;
};
closed = 0;
nodes = (
(270,365,l),
(270,680,l)
);
},
{
attr = {
lineCapEnd = 1;
lineCapStart = 1;
strokeHeight = 100;
strokeWidth = 100;
};
closed = 0;
nodes = (
(100,850,l),
(459,850,l)
);
},
{
attr = {
lineCapEnd = 1;
lineCapStart = 1;
strokeHeight = 100;
strokeWidth = 100;
};
closed = 0;
nodes = (
(100,365,l),
(100,850,l)
);
}
);
width = 559;
}
);
unicode = 12302;
}
{
glyphname = waxingCrescentMoonSymbol;
kernLeft = emojiRound;
kernRight = emojiRound;
layers = (
{
layerId = m002;
shapes = (
{
attr = {
strokeHeight = 100;
strokeWidth = 100;
};
closed = 1;
nodes = (
(815,-70,o),
(1020,136,o),
(1020,391,c),
(1020,645,o),
(815,850,o),
(561,850,c),
(306,850,o),
(100,645,o),
(100,391,c),
(100,136,o),
(306,-70,o),
(561,-70,c)
);
},
{
attr = {
lineCapEnd = 1;
lineCapStart = 1;
strokeHeight = 100;
strokeWidth = 100;
};
closed = 0;
nodes = (
(414,826,l),
(595,765,o),
(725,593,o),
(725,391,c),
(725,188,o),
(595,16,o),
(414,-46,c)
);
}
);
width = 1120;
}
);
unicode = 127762;
}
{
glyphname = mobilePhone;
layers = (
{
layerId = m002;
shapes = (
{
attr = {
strokeHeight = 100;
strokeWidth = 100;
};
closed = 1;
nodes = (
(140,850,l),
(118,850,o),
(100,832,o),
(100,810,c),
(100,-30,l),
(100,-52,o),
(118,-70,o),
(140,-70,c),
(660,-70,l),
(682,-70,o),
(700,-52,o),
(700,-30,c),
(700,810,l),
(700,832,o),
(682,850,o),
(660,850,c)
);
},
{
attr = {
strokeHeight = 100;
strokeWidth = 100;
};
closed = 0;
nodes = (
(100,90,l),
(694,90,l)
);
},
{
attr = {
strokeHeight = 100;
strokeWidth = 100;
};
closed = 0;
nodes = (
(100,690,l),
(694,690,l)
);
}
);
width = 800;
}
);
unicode = 128241;
}
{
glyphname = camera;
layers = (
{
layerId = m002;
shapes = (
{
attr = {
lineCapEnd = 1;
lineCapStart = 1;
strokeHeight = 100;
strokeWidth = 100;
};
closed = 0;
nodes = (
(1020,50,l),
(1020,670,l)
);
},
{
attr = {
lineCapEnd = 1;
lineCapStart = 1;
strokeHeight = 100;
strokeWidth = 100;
};
closed = 0;
nodes = (
(100,670,l),
(100,50,l)
);
},
{
attr = {
lineCapEnd = 1;
lineCapStart = 1;
strokeHeight = 100;
strokeWidth = 100;
};
closed = 0;
nodes = (
(385,850,l),
(305,670,l)
);
},
{
attr = {
lineCapEnd = 1;
lineCapStart = 1;
strokeHeight = 100;
strokeWidth = 100;
};
closed = 0;
nodes = (
(815,670,l),
(735,850,l)
);
},
{
attr = {
lineCapEnd = 1;
lineCapStart = 1;
strokeHeight = 100;
strokeWidth = 100;
};
closed = 0;
nodes = (
(100,50,l),
(1020,50,l)
);
},
{
attr = {
lineCapEnd = 1;
lineCapStart = 1;
strokeHeight = 100;
strokeWidth = 100;
};
closed = 0;
nodes = (
(305,670,l),
(100,670,l)
);
},
{
attr = {
lineCapEnd = 1;
lineCapStart = 1;
strokeHeight = 100;
strokeWidth = 100;
};
closed = 0;
nodes = (
(815,670,l),
(1020,670,l)
);
},
{
attr = {
strokeHeight = 100;
strokeWidth = 100;
};
closed = 1;
nodes = (
(760,510,o),
(670,600,o),
(560,600,c),
(450,600,o),
(360,510,o),
(360,400,c),
(360,290,o),
(450,200,o),
(560,200,c),
(670,200,o),
(760,290,o),
(760,400,c)
);
},
{
attr = {
lineCapEnd = 1;
lineCapStart = 1;
strokeHeight = 100;
strokeWidth = 100;
};
closed = 0;
nodes = (
(735,850,l),
(385,850,l)
);
}
);
width = 1120;
}
);
unicode = 128247;
}
{
glyphname = leftMagnifyingGlass;
layers = (
{
layerId = m002;
shapes = (
{
attr = {
strokeHeight = 100;
strokeWidth = 100;
};
closed = 1;
nodes = (
(706,850,o),
(880,676,o),
(880,460,c),
(880,244,o),
(706,70,o),
(491,70,c),
(275,70,o),
(100,244,o),
(100,460,c),
(100,676,o),
(275,850,o),
(491,850,c)
);
},
{
attr = {
lineCapEnd = 1;
lineCapStart = 1;
strokeHeight = 100;
strokeWidth = 100;
};
closed = 0;
nodes = (
(774,177,l),
(1020,-70,l)
);
}
);
width = 1105;
}
);
unicode = 128269;
}
{
glyphname = openLock;
layers = (
{
layerId = m002;
shapes = (
{
attr = {
lineCapEnd = 1;
lineCapStart = 1;
strokeHeight = 100;
strokeWidth = 100;
};
closed = 0;
nodes = (
(100,420,l),
(100,-70,l)
);
},
{
attr = {
lineCapEnd = 1;
lineCapStart = 1;
strokeHeight = 100;
strokeWidth = 100;
};
closed = 0;
nodes = (
(220,610,l),
(220,743,o),
(327,850,o),
(460,850,c),
(593,850,o),
(700,743,o),
(700,610,c),
(700,420,l)
);
},
{
attr = {
lineCapEnd = 1;
lineCapStart = 1;
strokeHeight = 100;
strokeWidth = 100;
};
closed = 0;
nodes = (
(820,420,l),
(100,420,l)
);
},
{
attr = {
lineCapEnd = 1;
lineCapStart = 1;
strokeHeight = 100;
strokeWidth = 100;
};
closed = 0;
nodes = (
(100,-70,l),
(820,-70,l)
);
},
{
attr = {
strokeHeight = 100;
strokeWidth = 100;
};
closed = 1;
nodes = (
(535,216,o),
(501,250,o),
(460,250,c),
(419,250,o),
(385,216,o),
(385,175,c),
(385,134,o),
(419,100,o),
(460,100,c),
(501,100,o),
(535,134,o),
(535,175,c)
);
},
{
attr = {
lineCapEnd = 1;
lineCapStart = 1;
strokeHeight = 100;
strokeWidth = 100;
};
closed = 0;
nodes = (
(820,-70,l),
(820,420,l)
);
}
);
width = 920;
}
);
unicode = 128275;
}
{
glyphname = grinningFace;
kernLeft = emojiRound;
kernRight = emojiRound;
layers = (
{
layerId = m002;
shapes = (
{
attr = {
lineCapEnd = 1;
lineCapStart = 1;
strokeHeight = 100;
strokeWidth = 100;
};
closed = 0;
nodes = (
(714,580,l),
(714,520,l)
);
},
{
attr = {
lineCapEnd = 1;
lineCapStart = 1;
strokeHeight = 100;
strokeWidth = 100;
};
closed = 0;
nodes = (
(408,580,l),
(408,520,l)
);
},
{
attr = {
strokeHeight = 100;
strokeWidth = 100;
};
closed = 1;
nodes = (
(815,-70,o),
(1020,136,o),
(1020,391,c),
(1020,645,o),
(815,850,o),
(561,850,c),
(306,850,o),
(100,645,o),
(100,391,c),
(100,136,o),
(306,-70,o),
(561,-70,c)
);
},
{
attr = {
lineCapEnd = 1;
lineCapStart = 1;
strokeHeight = 100;
strokeWidth = 100;
};
closed = 0;
nodes = (
(268,391,l),
(268,229,o),
(399,98,o),
(561,98,c),
(722,98,o),
(852,229,o),
(852,391,c)
);
},
{
attr = {
lineCapEnd = 1;
lineCapStart = 1;
strokeHeight = 100;
strokeWidth = 100;
};
closed = 0;
nodes = (
(852,391,l),
(852,391,o),
(734,296,o),
(561,296,c),
(388,296,o),
(268,391,o),
(268,391,c)
);
}
);
width = 1120;
}
);
unicode = 128512;
}
{
glyphname = smilingFaceWithOpenMouth;
kernLeft = emojiRound;
kernRight = emojiRound;
layers = (
{
layerId = m002;
shapes = (
{
attr = {
lineCapEnd = 1;
lineCapStart = 1;
strokeHeight = 100;
strokeWidth = 100;
};
closed = 0;
nodes = (
(714,610,l),
(714,490,l)
);
},
{
attr = {
lineCapEnd = 1;
lineCapStart = 1;
strokeHeight = 100;
strokeWidth = 100;
};
closed = 0;
nodes = (
(408,610,l),
(408,490,l)
);
},
{
attr = {
strokeHeight = 100;
strokeWidth = 100;
};
closed = 1;
nodes = (
(815,-70,o),
(1020,136,o),
(1020,391,c),
(1020,645,o),
(815,850,o),
(561,850,c),
(306,850,o),
(100,645,o),
(100,391,c),
(100,136,o),
(306,-70,o),
(561,-70,c)
);
},
{
attr = {
lineCapEnd = 1;
lineCapStart = 1;
strokeHeight = 100;
strokeWidth = 100;
};
closed = 0;
nodes = (
(268,391,l),
(268,229,o),
(398,98,o),
(560,98,c),
(721,98,o),
(852,229,o),
(852,391,c)
);
},
{
attr = {
lineCapEnd = 1;
lineCapStart = 1;
strokeHeight = 100;
strokeWidth = 100;
};
closed = 0;
nodes = (
(852,391,l),
(852,391,o),
(734,296,o),
(560,296,c),
(388,296,o),
(268,391,o),
(268,391,c)
);
}
);
width = 1120;
}
);
unicode = 128515;
}
{
glyphname = noEntrySign;
kernLeft = emojiRound;
kernRight = emojiRound;
layers = (
{
layerId = m002;
shapes = (
{
attr = {
strokeHeight = 100;
strokeWidth = 100;
};
closed = 1;
nodes = (
(815,850,o),
(1020,644,o),
(1020,389,c),
(1020,135,o),
(815,-70,o),
(561,-70,c),
(306,-70,o),
(100,135,o),
(100,389,c),
(100,644,o),
(306,850,o),
(561,850,c)
);
},
{
attr = {
strokeHeight = 100;
strokeWidth = 100;
};
closed = 0;
nodes = (
(959,160,l),
(162,620,l)
);
}
);
width = 1120;
}
);
unicode = 128683;
}
{
export = 0;
glyphname = BahamasFlag;
lastChange = "2025-05-22 17:22:15 +0000";
layers = (
{
layerId = m002;
shapes = (
{
attr = {
lineCapEnd = 1;
lineCapStart = 1;
strokeWidth = 100;
};
closed = 0;
nodes = (
(1020,120,l),
(1020,680,l)
);
},
{
attr = {
lineCapEnd = 1;
lineCapStart = 1;
strokeWidth = 100;
};
closed = 0;
nodes = (
(100,680,l),
(100,120,l)
);
},
{
attr = {
lineCapEnd = 1;
lineCapStart = 1;
strokeWidth = 100;
};
closed = 0;
nodes = (
(1020,120,l),
(962,135,o),
(905,150,o),
(790,150,c),
(590,150,o),
(530,90,o),
(330,90,c),
(215,90,o),
(157,105,o),
(100,120,c)
);
},
{
attr = {
lineCapEnd = 1;
lineCapStart = 1;
strokeWidth = 100;
};
closed = 0;
nodes = (
(1020,680,l),
(962,695,o),
(905,710,o),
(790,710,c),
(590,710,o),
(530,650,o),
(330,650,c),
(215,650,o),
(157,665,o),
(100,680,c)
);
},
{
attr = {
lineCapEnd = 1;
lineCapStart = 1;
strokeWidth = 100;
};
closed = 0;
nodes = (
(358,277,l),
(536,282,o),
(600,337,o),
(790,337,c),
(905,337,o),
(962,322,o),
(1020,307,c)
);
},
{
attr = {
lineCapEnd = 1;
lineCapStart = 1;
strokeWidth = 100;
};
closed = 0;
nodes = (
(444,471,l),
(563,487,o),
(634,523,o),
(790,523,c),
(905,523,o),
(962,508,o),
(1020,493,c)
);
},
{
attr = {
lineCapEnd = 1;
lineCapStart = 1;
strokeWidth = 100;
};
closed = 0;
nodes = (
(100,120,l),
(560,400,l)
);
},
{
attr = {
lineCapEnd = 1;
lineCapStart = 1;
strokeWidth = 100;
};
closed = 0;
nodes = (
(100,680,l),
(560,400,l)
);
}
);
width = 1120;
}
);
}
{
export = 0;
glyphname = BeninFlag;
lastChange = "2025-05-22 17:22:15 +0000";
layers = (
{
layerId = m002;
shapes = (
{
attr = {
lineCapEnd = 1;
lineCapStart = 1;
strokeWidth = 100;
};
closed = 0;
nodes = (
(1020,120,l),
(1020,680,l)
);
},
{
attr = {
lineCapEnd = 1;
lineCapStart = 1;
strokeWidth = 100;
};
closed = 0;
nodes = (
(100,680,l),
(100,120,l)
);
},
{
attr = {
lineCapEnd = 1;
lineCapStart = 1;
strokeWidth = 100;
};
closed = 0;
nodes = (
(1020,120,l),
(962,135,o),
(905,150,o),
(790,150,c),
(590,150,o),
(530,90,o),
(330,90,c),
(215,90,o),
(157,105,o),
(100,120,c)
);
},
{
attr = {
lineCapEnd = 1;
lineCapStart = 1;
strokeWidth = 100;
};
closed = 0;
nodes = (
(1020,680,l),
(962,695,o),
(905,710,o),
(790,710,c),
(590,710,o),
(530,650,o),
(330,650,c),
(215,650,o),
(157,665,o),
(100,680,c)
);
},
{
attr = {
lineCapEnd = 1;
lineCapStart = 1;
strokeWidth = 100;
};
closed = 0;
nodes = (
(460,286,l),
(570,303,o),
(641,337,o),
(790,337,c),
(905,337,o),
(962,322,o),
(1020,307,c)
);
},
{
attr = {
lineCapEnd = 1;
lineCapStart = 1;
strokeWidth = 100;
};
closed = 0;
nodes = (
(460,473,l),
(570,490,o),
(641,523,o),
(790,523,c),
(905,523,o),
(962,508,o),
(1020,493,c)
);
},
{
attr = {
lineCapEnd = 1;
lineCapStart = 1;
strokeWidth = 100;
};
closed = 0;
nodes = (
(460,660,l),
(460,100,l)
);
}
);
width = 1120;
}
);
}
{
export = 0;
glyphname = ColombiaFlag;
lastChange = "2025-05-22 17:22:15 +0000";
layers = (
{
layerId = m002;
shapes = (
{
attr = {
lineCapEnd = "1";
lineCapStart = "1";
strokeWidth = 100;
};
closed = 0;
nodes = (
(1020,680,l),
(962,695,o),
(905,710,o),
(790,710,c),
(590,710,o),
(530,650,o),
(330,650,c),
(215,650,o),
(157,665,o),
(100,680,c)
);
},
{
attr = {
lineCapEnd = "1";
lineCapStart = "1";
strokeWidth = 100;
};
closed = 0;
nodes = (
(1020,120,l),
(962,135,o),
(905,150,o),
(790,150,c),
(590,150,o),
(530,90,o),
(330,90,c),
(215,90,o),
(157,105,o),
(100,120,c)
);
},
{
attr = {
lineCapEnd = "1";
lineCapStart = "1";
strokeWidth = 100;
};
closed = 0;
nodes = (
(1020,433,l),
(962,448,o),
(905,463,o),
(790,463,c),
(590,463,o),
(530,403,o),
(330,403,c),
(215,403,o),
(157,418,o),
(100,433,c)
);
},
{
attr = {
lineCapEnd = "1";
lineCapStart = "1";
strokeWidth = 100;
};
closed = 0;
nodes = (
(1020,277,l),
(962,292,o),
(905,307,o),
(790,307,c),
(590,307,o),
(530,247,o),
(330,247,c),
(215,247,o),
(157,262,o),
(100,277,c)
);
},
{
attr = {
lineCapEnd = "1";
lineCapStart = "1";
strokeWidth = 100;
};
closed = 0;
nodes = (
(100,680,l),
(100,120,l)
);
},
{
attr = {
lineCapEnd = "1";
lineCapStart = "1";
strokeWidth = 100;
};
closed = 0;
nodes = (
(1020,120,l),
(1020,680,l)
);
}
);
width = 1120;
}
);
}
{
glyphname = Ldot_comma;
lastChange = "2025-05-23 06:55:30 +0000";
layers = (
{
.lastUpdate = 769700929.337;
layerId = m002;
shapes = (
{
ref = L;
},
{
pos = (185,135);
ref = periodcentered;
},
{
attr = {
identifier = ID0x161b08160;
lineCapEnd = "1";
lineCapStart = "1";
strokeHeight = 100;
strokeWidth = 100;
};
closed = 0;
nodes = (
(462,-80,l),
(500,50,l)
);
}
);
width = 600;
}
);
}
{
export = 0;
glyphname = PalestinianTerritoriesFlag;
lastChange = "2025-05-22 17:22:15 +0000";
layers = (
{
layerId = m002;
shapes = (
{
attr = {
lineCapEnd = 1;
lineCapStart = 1;
strokeWidth = 100;
};
closed = 0;
nodes = (
(1020,120,l),
(1020,680,l)
);
},
{
attr = {
lineCapEnd = 1;
lineCapStart = 1;
strokeWidth = 100;
};
closed = 0;
nodes = (
(100,680,l),
(100,120,l)
);
},
{
attr = {
lineCapEnd = 1;
lineCapStart = 1;
strokeWidth = 100;
};
closed = 0;
nodes = (
(1020,120,l),
(962,135,o),
(905,150,o),
(790,150,c),
(590,150,o),
(530,90,o),
(330,90,c),
(215,90,o),
(157,105,o),
(100,120,c)
);
},
{
attr = {
lineCapEnd = 1;
lineCapStart = 1;
strokeWidth = 100;
};
closed = 0;
nodes = (
(1020,680,l),
(962,695,o),
(905,710,o),
(790,710,c),
(590,710,o),
(530,650,o),
(330,650,c),
(215,650,o),
(157,665,o),
(100,680,c)
);
},
{
attr = {
lineCapEnd = 1;
lineCapStart = 1;
strokeWidth = 100;
};
closed = 0;
nodes = (
(314,277,l),
(319,277,o),
(324,277,o),
(330,277,c),
(530,277,o),
(590,337,o),
(790,337,c),
(905,337,o),
(962,322,o),
(1020,307,c)
);
},
{
attr = {
lineCapEnd = 1;
lineCapStart = 1;
strokeWidth = 100;
};
closed = 0;
nodes = (
(363,464,l),
(537,470,o),
(601,523,o),
(790,523,c),
(905,523,o),
(962,508,o),
(1020,493,c)
);
},
{
attr = {
lineCapEnd = 1;
lineCapStart = 1;
strokeWidth = 100;
};
closed = 0;
nodes = (
(100,120,l),
(460,384,l)
);
},
{
attr = {
lineCapEnd = 1;
lineCapStart = 1;
strokeWidth = 100;
};
closed = 0;
nodes = (
(100,680,l),
(460,384,l)
);
}
);
width = 1120;
}
);
}
{
export = 0;
glyphname = ScotlandFlag;
lastChange = "2025-05-22 17:22:15 +0000";
layers = (
{
layerId = m002;
shapes = (
{
attr = {
lineCapEnd = 1;
lineCapStart = 1;
strokeWidth = 100;
};
closed = 0;
nodes = (
(1020,114,l),
(1020,674,l)
);
},
{
attr = {
lineCapEnd = 1;
lineCapStart = 1;
strokeWidth = 100;
};
closed = 0;
nodes = (
(100,686,l),
(100,126,l)
);
},
{
attr = {
lineCapEnd = 1;
lineCapStart = 1;
strokeWidth = 100;
};
closed = 0;
nodes = (
(1020,114,l),
(962,129,o),
(905,144,o),
(790,144,c),
(590,144,o),
(530,84,o),
(330,84,c),
(215,84,o),
(157,99,o),
(100,114,c)
);
},
{
attr = {
lineCapEnd = 1;
lineCapStart = 1;
strokeWidth = 100;
};
closed = 0;
nodes = (
(1020,686,l),
(962,701,o),
(905,716,o),
(790,716,c),
(590,716,o),
(530,656,o),
(330,656,c),
(215,656,o),
(157,671,o),
(100,686,c)
);
},
{
attr = {
lineCapEnd = 1;
lineCapStart = 1;
strokeWidth = 100;
};
closed = 0;
nodes = (
(100,114,l),
(1020,686,l)
);
},
{
attr = {
lineCapEnd = 1;
lineCapStart = 1;
strokeWidth = 100;
};
closed = 0;
nodes = (
(100,686,l),
(1020,114,l)
);
}
);
width = 1120;
}
);
}
{
export = 0;
glyphname = SouthAfricaFlag;
lastChange = "2025-05-22 17:22:15 +0000";
layers = (
{
layerId = m002;
shapes = (
{
attr = {
lineCapEnd = 1;
lineCapStart = 1;
strokeWidth = 100;
};
closed = 0;
nodes = (
(1020,120,l),
(1020,680,l)
);
},
{
attr = {
lineCapEnd = 1;
lineCapStart = 1;
strokeWidth = 100;
};
closed = 0;
nodes = (
(100,680,l),
(100,120,l)
);
},
{
attr = {
lineCapEnd = 1;
lineCapStart = 1;
strokeWidth = 100;
};
closed = 0;
nodes = (
(1020,120,l),
(962,135,o),
(905,150,o),
(790,150,c),
(590,150,o),
(530,90,o),
(330,90,c),
(215,90,o),
(157,105,o),
(100,120,c)
);
},
{
attr = {
lineCapEnd = 1;
lineCapStart = 1;
strokeWidth = 100;
};
closed = 0;
nodes = (
(1020,680,l),
(962,695,o),
(905,710,o),
(790,710,c),
(590,710,o),
(530,650,o),
(330,650,c),
(215,650,o),
(157,665,o),
(100,680,c)
);
},
{
attr = {
lineCapEnd = 1;
lineCapStart = 1;
strokeWidth = 100;
};
closed = 0;
nodes = (
(1020,400,l),
(962,415,o),
(905,430,o),
(790,430,c),
(655,430,o),
(584,403,o),
(491,385,c)
);
},
{
attr = {
lineCapEnd = 1;
lineCapStart = 1;
strokeWidth = 100;
};
closed = 0;
nodes = (
(100,120,l),
(491,385,l)
);
},
{
attr = {
lineCapEnd = 1;
lineCapStart = 1;
strokeWidth = 100;
};
closed = 0;
nodes = (
(100,680,l),
(491,385,l)
);
}
);
width = 1120;
}
);
}
{
export = 0;
glyphname = UnitedKingdomFlag;
lastChange = "2025-05-22 17:22:15 +0000";
layers = (
{
layerId = m002;
shapes = (
{
attr = {
lineCapEnd = 1;
lineCapStart = 1;
strokeWidth = 100;
};
closed = 0;
nodes = (
(100,114,l),
(1020,686,l)
);
},
{
attr = {
lineCapEnd = 1;
lineCapStart = 1;
strokeWidth = 100;
};
closed = 0;
nodes = (
(100,686,l),
(1020,114,l)
);
},
{
attr = {
lineCapEnd = 1;
lineCapStart = 1;
strokeWidth = 100;
};
closed = 0;
nodes = (
(1020,114,l),
(1020,674,l)
);
},
{
attr = {
lineCapEnd = 1;
lineCapStart = 1;
strokeWidth = 100;
};
closed = 0;
nodes = (
(100,686,l),
(100,126,l)
);
},
{
attr = {
lineCapEnd = 1;
lineCapStart = 1;
strokeWidth = 100;
};
closed = 0;
nodes = (
(1020,114,l),
(962,129,o),
(905,144,o),
(790,144,c),
(590,144,o),
(530,84,o),
(330,84,c),
(215,84,o),
(157,99,o),
(100,114,c)
);
},
{
attr = {
lineCapEnd = 1;
lineCapStart = 1;
strokeWidth = 100;
};
closed = 0;
nodes = (
(1020,686,l),
(962,701,o),
(905,716,o),
(790,716,c),
(590,716,o),
(530,656,o),
(330,656,c),
(215,656,o),
(157,671,o),
(100,686,c)
);
},
{
attr = {
lineCapEnd = 1;
lineCapStart = 1;
strokeWidth = 100;
};
closed = 0;
nodes = (
(1020,406,l),
(962,421,o),
(905,436,o),
(790,436,c),
(590,436,o),
(530,376,o),
(330,376,c),
(215,376,o),
(157,391,o),
(100,406,c)
);
},
{
attr = {
lineCapEnd = 1;
lineCapStart = 1;
strokeWidth = 100;
};
closed = 0;
nodes = (
(560,126,l),
(560,686,l)
);
}
);
width = 1120;
}
);
}
{
glyphname = a.ss01;
layers = (
{
layerId = m002;
shapes = (
{
attr = {
lineCapEnd = 1;
lineCapStart = 1;
strokeHeight = 100;
strokeWidth = 100;
};
closed = 0;
nodes = (
(140,503,l),
(188,560,o),
(232,580,o),
(325,580,cs),
(431,580,o),
(500,533,o),
(500,408,c),
(500,50,l)
);
},
{
attr = {
lineCapEnd = 1;
lineCapStart = 1;
strokeWidth = 100;
};
closed = 0;
nodes = (
(500,250,l),
(500,139,o),
(411,50,o),
(301,50,c),
(232,50,l),
(159,50,o),
(100,109,o),
(100,182,c),
(100,256,o),
(159,315,o),
(232,315,c),
(500,315,l)
);
}
);
width = 600;
}
);
}
{
color = 10;
glyphname = braceleft.case;
kernRight = parenthesis;
lastChange = "2025-05-23 14:02:54 +0000";
layers = (
{
.lastUpdate = 769700650.904;
layerId = m002;
shapes = (
{
attr = {
lineCapEnd = "1";
lineCapStart = "1";
strokeHeight = 100;
strokeWidth = 100;
};
closed = 0;
nodes = (
(421,930,l),
(332,930,o),
(261,858,o),
(261,770,c),
(261,610,l),
(261,522,o),
(189,450,o),
(101,450,c)
);
},
{
attr = {
lineCapEnd = "1";
lineCapStart = "1";
strokeHeight = 100;
strokeWidth = 100;
};
closed = 0;
nodes = (
(101,450,l),
(189,450,o),
(261,379,o),
(261,290,c),
(261,130,l),
(261,42,o),
(332,-30,o),
(421,-30,c)
);
}
);
width = 520;
}
);
}
{
color = 10;
glyphname = bracketleft.case;
kernRight = parenthesis;
lastChange = "2025-05-23 14:02:54 +0000";
layers = (
{
.lastUpdate = 769700673.786;
layerId = m002;
shapes = (
{
attr = {
lineCapEnd = "1";
lineCapStart = "1";
strokeHeight = 100;
strokeWidth = 100;
};
closed = 0;
nodes = (
(100,930,l),
(100,-30,l)
);
},
{
attr = {
lineCapEnd = "1";
lineCapStart = "1";
strokeHeight = 100;
strokeWidth = 100;
};
closed = 0;
nodes = (
(100,-30,l),
(260,-30,l)
);
},
{
attr = {
lineCapEnd = "1";
lineCapStart = "1";
strokeHeight = 100;
strokeWidth = 100;
};
closed = 0;
nodes = (
(260,930,l),
(100,930,l)
);
}
);
width = 360;
}
);
}
{
glyphname = "brevecomb-cy";
layers = (
{
anchors = (
{
name = _top;
pos = (240,630);
},
{
name = top;
pos = (240,901);
}
);
layerId = m002;
shapes = (
{
attr = {
lineCapEnd = 1;
lineCapStart = 1;
strokeHeight = 100;
strokeWidth = 100;
};
closed = 0;
nodes = (
(100,850,l),
(100,773,o),
(163,710,o),
(240,710,c),
(318,710,o),
(380,773,o),
(380,850,c)
);
}
);
width = 480;
}
);
}
{
color = 10;
glyphname = emdash.case;
kernLeft = dash;
kernRight = dash;
lastChange = "2025-05-23 14:02:54 +0000";
layers = (
{
.lastUpdate = 769701144.185;
layerId = m002;
shapes = (
{
attr = {
lineCapEnd = "1";
lineCapStart = "1";
strokeHeight = 100;
strokeWidth = 100;
};
closed = 0;
nodes = (
(100,450,l),
(800,450,l)
);
}
);
width = 900;
}
);
}
{
color = 10;
glyphname = equal.case;
lastChange = "2025-05-23 14:02:54 +0000";
layers = (
{
.lastUpdate = 769701158.59;
layerId = m002;
shapes = (
{
attr = {
lineCapEnd = "1";
lineCapStart = "1";
strokeHeight = 100;
strokeWidth = 100;
};
closed = 0;
nodes = (
(100,300,l),
(600,300,l)
);
},
{
attr = {
lineCapEnd = "1";
lineCapStart = "1";
strokeHeight = 100;
strokeWidth = 100;
};
closed = 0;
nodes = (
(100,600,l),
(600,600,l)
);
}
);
width = 700;
}
);
}
{
glyphname = f_f_l;
layers = (
{
anchors = (
{
name = caret_1;
pos = (349,0);
},
{
name = caret_2;
pos = (698,0);
}
);
layerId = m002;
shapes = (
{
attr = {
lineCapEnd = 1;
lineCapStart = 1;
strokeHeight = 100;
strokeWidth = 100;
};
closed = 0;
nodes = (
(375,580,l),
(642,580,l)
);
},
{
attr = {
lineCapEnd = 1;
lineCapStart = 1;
strokeHeight = 100;
strokeWidth = 100;
};
closed = 0;
nodes = (
(480,50,l),
(480,710,l),
(480,787,o),
(543,850,o),
(620,850,c),
(675,850,l),
(744,850,o),
(788,830,o),
(817,792,c)
);
},
{
attr = {
lineCapEnd = 1;
lineCapStart = 1;
strokeHeight = 100;
strokeWidth = 100;
};
closed = 0;
nodes = (
(205,50,l),
(205,710,l),
(205,787,o),
(267,850,o),
(345,850,c),
(361,850,o),
(376,849,o),
(390,847,c)
);
},
{
attr = {
lineCapEnd = 1;
lineCapStart = 1;
strokeHeight = 100;
strokeWidth = 100;
};
closed = 0;
nodes = (
(100,580,l),
(642,580,l)
);
},
{
attr = {
lineCapEnd = 1;
lineCapStart = 1;
strokeHeight = 100;
strokeWidth = 100;
};
closed = 0;
nodes = (
(817,792,l),
(817,150,l),
(817,95,o),
(862,50,o),
(917,50,c),
(947,50,l)
);
}
);
width = 1047;
}
);
metricLeft = f;
metricRight = l;
}
{
color = 10;
glyphname = greater.case;
lastChange = "2025-05-23 14:02:54 +0000";
layers = (
{
.lastUpdate = 769701173.856;
layerId = m002;
shapes = (
{
attr = {
lineCapEnd = "1";
lineCapStart = "1";
strokeHeight = 100;
strokeWidth = 100;
};
closed = 0;
nodes = (
(600,450,l),
(100,715,l)
);
},
{
attr = {
lineCapEnd = "1";
lineCapStart = "1";
strokeHeight = 100;
strokeWidth = 100;
};
closed = 0;
nodes = (
(100,185,l),
(600,450,l)
);
}
);
width = 700;
}
);
}
{
color = 10;
glyphname = hyphen.case;
kernLeft = dash;
kernRight = dash;
lastChange = "2025-05-23 14:02:54 +0000";
layers = (
{
.lastUpdate = 769701133.387;
layerId = m002;
shapes = (
{
attr = {
lineCapEnd = "1";
lineCapStart = "1";
strokeHeight = 100;
strokeWidth = 100;
};
closed = 0;
nodes = (
(100,450,l),
(500,450,l)
);
}
);
width = 600;
}
);
}
{
glyphname = hyphen_hyphen;
kernLeft = dash;
kernRight = dash;
lastChange = "2025-05-23 09:07:16 +0000";
layers = (
{
.lastUpdate = 769684036.901;
layerId = m002;
shapes = (
{
attr = {
lineCapEnd = "1";
lineCapStart = "1";
strokeHeight = 100;
strokeWidth = 100;
};
closed = 0;
nodes = (
(100,315,l),
(1100,315,l)
);
}
);
width = 1200;
}
);
}
{
glyphname = hyphen_hyphen_hyphen;
kernLeft = dash;
kernRight = dash;
lastChange = "2025-05-23 09:08:16 +0000";
layers = (
{
.lastUpdate = 769684096.45;
layerId = m002;
shapes = (
{
attr = {
lineCapEnd = "1";
lineCapStart = "1";
strokeHeight = 100;
strokeWidth = 100;
};
closed = 0;
nodes = (
(100,315,l),
(1700,315,l)
);
}
);
width = 1800;
}
);
}
{
export = 0;
glyphname = keycapDigitOne;
kernLeft = emojiSquare;
kernRight = emojiSquare;
lastChange = "2025-05-22 17:22:15 +0000";
layers = (
{
layerId = m002;
shapes = (
{
attr = {
strokeHeight = 100;
strokeWidth = 100;
};
closed = 1;
nodes = (
(240,850,l),
(163,850,o),
(100,787,o),
(100,710,c),
(100,70,l),
(100,-7,o),
(163,-70,o),
(240,-70,c),
(880,-70,l),
(958,-70,o),
(1020,-7,o),
(1020,70,c),
(1020,710,l),
(1020,787,o),
(958,850,o),
(880,850,c)
);
},
{
attr = {
lineCapEnd = 1;
lineCapStart = 1;
strokeHeight = 100;
strokeWidth = 100;
};
closed = 0;
nodes = (
(560,670,l),
(560,110,l)
);
},
{
attr = {
lineCapEnd = 1;
lineCapStart = 1;
strokeHeight = 100;
strokeWidth = 100;
};
closed = 0;
nodes = (
(420,594,l),
(560,670,l)
);
}
);
width = 1120;
}
);
}
{
export = 0;
glyphname = keycapDigitSix;
kernLeft = emojiSquare;
kernRight = emojiSquare;
lastChange = "2025-05-22 17:22:15 +0000";
layers = (
{
layerId = m002;
shapes = (
{
attr = {
strokeHeight = 100;
strokeWidth = 100;
};
closed = 1;
nodes = (
(240,850,l),
(163,850,o),
(100,787,o),
(100,710,c),
(100,70,l),
(100,-7,o),
(163,-70,o),
(240,-70,c),
(880,-70,l),
(957,-70,o),
(1020,-7,o),
(1020,70,c),
(1020,710,l),
(1020,787,o),
(957,850,o),
(880,850,c)
);
},
{
attr = {
strokeHeight = 100;
strokeWidth = 100;
};
closed = 1;
nodes = (
(746,193,o),
(662,110,o),
(560,110,c),
(458,110,o),
(375,193,o),
(375,296,c),
(375,398,o),
(458,481,o),
(560,481,c),
(662,481,o),
(746,398,o),
(746,296,c)
);
},
{
attr = {
lineCapEnd = 1;
lineCapStart = 1;
strokeHeight = 100;
strokeWidth = 100;
};
closed = 0;
nodes = (
(729,602,l),
(698,642,o),
(651,670,o),
(573,670,c),
(560,670,l),
(458,670,o),
(375,587,o),
(375,484,c),
(375,295,l)
);
}
);
width = 1120;
}
);
}
{
export = 0;
glyphname = keycapDigitTwo;
kernLeft = emojiSquare;
kernRight = emojiSquare;
lastChange = "2025-05-22 17:22:15 +0000";
layers = (
{
layerId = m002;
shapes = (
{
attr = {
strokeHeight = 100;
strokeWidth = 100;
};
closed = 1;
nodes = (
(240,850,l),
(163,850,o),
(100,787,o),
(100,710,c),
(100,70,l),
(100,-7,o),
(163,-70,o),
(240,-70,c),
(880,-70,l),
(958,-70,o),
(1020,-7,o),
(1020,70,c),
(1020,710,l),
(1020,787,o),
(958,850,o),
(880,850,c)
);
},
{
attr = {
lineCapEnd = 1;
lineCapStart = 1;
strokeHeight = 100;
strokeWidth = 100;
};
closed = 0;
nodes = (
(375,485,l),
(375,599,o),
(479,689,o),
(597,666,c),
(675,652,o),
(737,584,o),
(745,505,c),
(751,447,o),
(732,389,o),
(692,353,c),
(617,287,o),
(375,110,o),
(375,110,c)
);
},
{
attr = {
lineCapEnd = 1;
lineCapStart = 1;
strokeHeight = 100;
strokeWidth = 100;
};
closed = 0;
nodes = (
(375,110,l),
(746,110,l)
);
}
);
width = 1120;
}
);
}
{
color = 10;
glyphname = multiply.case;
lastChange = "2025-05-23 14:02:54 +0000";
layers = (
{
.lastUpdate = 769701149.985;
layerId = m002;
shapes = (
{
attr = {
lineCapEnd = "1";
lineCapStart = "1";
strokeHeight = 100;
strokeWidth = 100;
};
closed = 0;
nodes = (
(160,640,l),
(540,260,l)
);
},
{
attr = {
lineCapEnd = "1";
lineCapStart = "1";
strokeHeight = 100;
strokeWidth = 100;
};
closed = 0;
nodes = (
(540,640,l),
(160,260,l)
);
}
);
width = 700;
}
);
}
{
color = 10;
glyphname = notequal.case;
lastChange = "2025-05-23 14:02:54 +0000";
layers = (
{
.lastUpdate = 769701168.154;
layerId = m002;
shapes = (
{
attr = {
lineCapEnd = "1";
lineCapStart = "1";
strokeHeight = 100;
strokeWidth = 100;
};
closed = 0;
nodes = (
(100,295,l),
(600,295,l)
);
},
{
attr = {
lineCapEnd = "1";
lineCapStart = "1";
strokeHeight = 100;
strokeWidth = 100;
};
closed = 0;
nodes = (
(100,595,l),
(600,595,l)
);
},
{
attr = {
lineCapEnd = "1";
lineCapStart = "1";
strokeHeight = 100;
strokeWidth = 100;
};
closed = 0;
nodes = (
(250,135,l),
(450,765,l)
);
}
);
width = 700;
}
);
}
{
color = 10;
glyphname = parenright.case;
kernLeft = parenthesis;
lastChange = "2025-05-23 14:03:11 +0000";
layers = (
{
.lastUpdate = 769700436.713;
layerId = m002;
shapes = (
{
attr = {
lineCapEnd = "1";
lineCapStart = "1";
strokeHeight = 100;
strokeWidth = 100;
};
closed = 0;
nodes = (
(100,930,l),
(100,930,o),
(300,752,o),
(300,450,c),
(300,147,o),
(100,-30,o),
(100,-30,c)
);
}
);
width = 400;
}
);
}
{
glyphname = rightLongArrow2;
lastChange = "2025-05-23 09:03:56 +0000";
layers = (
{
.lastUpdate = 769683836.456;
layerId = m002;
shapes = (
{
attr = {
lineCapEnd = "1";
lineCapStart = "1";
strokeHeight = 100;
strokeWidth = 100;
};
closed = 0;
nodes = (
(1635,50,l),
(1900,315,l)
);
},
{
attr = {
lineCapEnd = "1";
lineCapStart = "1";
strokeHeight = 100;
strokeWidth = 100;
};
closed = 0;
nodes = (
(1900,315,l),
(100,315,l)
);
},
{
attr = {
lineCapEnd = "1";
lineCapStart = "1";
strokeHeight = 100;
strokeWidth = 100;
};
closed = 0;
nodes = (
(1900,315,l),
(1635,580,l)
);
}
);
width = 2000;
}
);
}
{
color = 10;
glyphname = tortoiseshellbracketleft.case;
kernRight = parenthesis;
lastChange = "2025-05-23 14:02:54 +0000";
layers = (
{
.lastUpdate = 769700705.423;
layerId = m002;
shapes = (
{
attr = {
lineCapEnd = "1";
lineCapStart = "1";
strokeHeight = 100;
strokeWidth = 100;
};
closed = 0;
nodes = (
(260,930,l),
(100,790,l)
);
},
{
attr = {
lineCapEnd = "1";
lineCapStart = "1";
strokeHeight = 100;
strokeWidth = 100;
};
closed = 0;
nodes = (
(100,110,l),
(260,-30,l)
);
},
{
attr = {
lineCapEnd = "1";
lineCapStart = "1";
strokeHeight = 100;
strokeWidth = 100;
};
closed = 0;
nodes = (
(100,790,l),
(100,110,l)
);
}
);
width = 360;
}
);
}
